<?xml version="1.0" encoding="UTF-8"?>
<svg version="1.1" xmlns="http://www.w3.org/2000/svg" width="717" height="717">
<path d="M0 0 C1.75754608 0.00323273 1.75754608 0.00323273 3.55059814 0.00653076 C20.53672998 0.05667497 37.16161296 0.42136992 53.9375 3.3125 C55.71398926 3.60253906 55.71398926 3.60253906 57.52636719 3.8984375 C84.76175976 8.4225427 111.45686799 15.59227481 136.9375 26.3125 C138.13463623 26.81402588 138.13463623 26.81402588 139.35595703 27.32568359 C175.59460808 42.68795798 208.44565391 63.2527226 237.9375 89.3125 C238.87980469 90.14394531 239.82210937 90.97539063 240.79296875 91.83203125 C252.50097799 102.3708196 264.1923183 113.31232051 273.91796875 125.734375 C276.09868228 128.51826461 278.38709825 131.18936351 280.6875 133.875 C319.48515315 180.52812851 344.19475454 238.57502553 354.6875 298.0625 C354.98575684 299.74641846 354.98575684 299.74641846 355.29003906 301.46435547 C358.47101138 320.43288081 359.31362634 339.16426897 359.25 358.375 C359.24784485 359.54669739 359.2456897 360.71839478 359.24346924 361.92559814 C359.19332503 378.91172998 358.82863008 395.53661296 355.9375 412.3125 C355.74414062 413.49682617 355.55078125 414.68115234 355.3515625 415.90136719 C350.8274573 443.13675976 343.65772519 469.83186799 332.9375 495.3125 C332.43597412 496.50963623 332.43597412 496.50963623 331.92431641 497.73095703 C316.56204202 533.96960808 295.9972774 566.82065391 269.9375 596.3125 C269.10605469 597.25480469 268.27460937 598.19710937 267.41796875 599.16796875 C256.8791804 610.87597799 245.93767949 622.5673183 233.515625 632.29296875 C230.73173539 634.47368228 228.06063649 636.76209825 225.375 639.0625 C178.72187149 677.86015315 120.67497447 702.56975454 61.1875 713.0625 C59.50358154 713.36075684 59.50358154 713.36075684 57.78564453 713.66503906 C38.81711919 716.84601138 20.08573103 717.68862634 0.875 717.625 C-0.29669739 717.62284485 -1.46839478 717.6206897 -2.67559814 717.61846924 C-19.66172998 717.56832503 -36.28661296 717.20363008 -53.0625 714.3125 C-54.83898926 714.02246094 -54.83898926 714.02246094 -56.65136719 713.7265625 C-83.88675976 709.2024573 -110.58186799 702.03272519 -136.0625 691.3125 C-137.25963623 690.81097412 -137.25963623 690.81097412 -138.48095703 690.29931641 C-174.71960808 674.93704202 -207.57065391 654.3722774 -237.0625 628.3125 C-238.47595703 627.06533203 -238.47595703 627.06533203 -239.91796875 625.79296875 C-251.62597799 615.2541804 -263.3173183 604.31267949 -273.04296875 591.890625 C-275.22368228 589.10673539 -277.51209825 586.43563649 -279.8125 583.75 C-318.61015315 537.09687149 -343.31975454 479.04997447 -353.8125 419.5625 C-354.01133789 418.4398877 -354.21017578 417.31727539 -354.41503906 416.16064453 C-357.59601138 397.19211919 -358.43862634 378.46073103 -358.375 359.25 C-358.37284485 358.07830261 -358.3706897 356.90660522 -358.36846924 355.69940186 C-358.31832503 338.71327002 -357.95363008 322.08838704 -355.0625 305.3125 C-354.86914062 304.12817383 -354.67578125 302.94384766 -354.4765625 301.72363281 C-349.9524573 274.48824024 -342.78272519 247.79313201 -332.0625 222.3125 C-331.56097412 221.11536377 -331.56097412 221.11536377 -331.04931641 219.89404297 C-315.68704202 183.65539192 -295.1222774 150.80434609 -269.0625 121.3125 C-268.23105469 120.37019531 -267.39960938 119.42789063 -266.54296875 118.45703125 C-256.0041804 106.74902201 -245.06267949 95.0576817 -232.640625 85.33203125 C-229.85673539 83.15131772 -227.18563649 80.86290175 -224.5 78.5625 C-177.84687149 39.76484685 -119.79997447 15.05524546 -60.3125 4.5625 C-59.1898877 4.36366211 -58.06727539 4.16482422 -56.91064453 3.95996094 C-37.94211919 0.77898862 -19.21073103 -0.06362634 0 0 Z " fill="#178E63" transform="translate(358.0625,-0.31250000000000006)"/>
<path d="M0 0 C1.75754608 0.00323273 1.75754608 0.00323273 3.55059814 0.00653076 C20.53672998 0.05667497 37.16161296 0.42136992 53.9375 3.3125 C55.71398926 3.60253906 55.71398926 3.60253906 57.52636719 3.8984375 C84.76175976 8.4225427 111.45686799 15.59227481 136.9375 26.3125 C138.13463623 26.81402588 138.13463623 26.81402588 139.35595703 27.32568359 C175.59460808 42.68795798 208.44565391 63.2527226 237.9375 89.3125 C238.87980469 90.14394531 239.82210937 90.97539063 240.79296875 91.83203125 C252.50097799 102.3708196 264.1923183 113.31232051 273.91796875 125.734375 C276.09868228 128.51826461 278.38709825 131.18936351 280.6875 133.875 C319.48515315 180.52812851 344.19475454 238.57502553 354.6875 298.0625 C354.98575684 299.74641846 354.98575684 299.74641846 355.29003906 301.46435547 C358.47101138 320.43288081 359.31362634 339.16426897 359.25 358.375 C359.24784485 359.54669739 359.2456897 360.71839478 359.24346924 361.92559814 C359.19332503 378.91172998 358.82863008 395.53661296 355.9375 412.3125 C355.74414062 413.49682617 355.55078125 414.68115234 355.3515625 415.90136719 C350.8274573 443.13675976 343.65772519 469.83186799 332.9375 495.3125 C332.43597412 496.50963623 332.43597412 496.50963623 331.92431641 497.73095703 C316.56204202 533.96960808 295.9972774 566.82065391 269.9375 596.3125 C269.10605469 597.25480469 268.27460937 598.19710937 267.41796875 599.16796875 C256.8791804 610.87597799 245.93767949 622.5673183 233.515625 632.29296875 C230.73173539 634.47368228 228.06063649 636.76209825 225.375 639.0625 C178.72187149 677.86015315 120.67497447 702.56975454 61.1875 713.0625 C59.50358154 713.36075684 59.50358154 713.36075684 57.78564453 713.66503906 C38.81711919 716.84601138 20.08573103 717.68862634 0.875 717.625 C-0.29669739 717.62284485 -1.46839478 717.6206897 -2.67559814 717.61846924 C-19.66172998 717.56832503 -36.28661296 717.20363008 -53.0625 714.3125 C-54.83898926 714.02246094 -54.83898926 714.02246094 -56.65136719 713.7265625 C-83.88675976 709.2024573 -110.58186799 702.03272519 -136.0625 691.3125 C-137.25963623 690.81097412 -137.25963623 690.81097412 -138.48095703 690.29931641 C-174.71960808 674.93704202 -207.57065391 654.3722774 -237.0625 628.3125 C-238.47595703 627.06533203 -238.47595703 627.06533203 -239.91796875 625.79296875 C-251.62597799 615.2541804 -263.3173183 604.31267949 -273.04296875 591.890625 C-275.22368228 589.10673539 -277.51209825 586.43563649 -279.8125 583.75 C-318.61015315 537.09687149 -343.31975454 479.04997447 -353.8125 419.5625 C-354.01133789 418.4398877 -354.21017578 417.31727539 -354.41503906 416.16064453 C-357.59601138 397.19211919 -358.43862634 378.46073103 -358.375 359.25 C-358.37284485 358.07830261 -358.3706897 356.90660522 -358.36846924 355.69940186 C-358.31832503 338.71327002 -357.95363008 322.08838704 -355.0625 305.3125 C-354.86914062 304.12817383 -354.67578125 302.94384766 -354.4765625 301.72363281 C-349.9524573 274.48824024 -342.78272519 247.79313201 -332.0625 222.3125 C-331.56097412 221.11536377 -331.56097412 221.11536377 -331.04931641 219.89404297 C-315.68704202 183.65539192 -295.1222774 150.80434609 -269.0625 121.3125 C-268.23105469 120.37019531 -267.39960938 119.42789063 -266.54296875 118.45703125 C-256.0041804 106.74902201 -245.06267949 95.0576817 -232.640625 85.33203125 C-229.85673539 83.15131772 -227.18563649 80.86290175 -224.5 78.5625 C-177.84687149 39.76484685 -119.79997447 15.05524546 -60.3125 4.5625 C-59.1898877 4.36366211 -58.06727539 4.16482422 -56.91064453 3.95996094 C-37.94211919 0.77898862 -19.21073103 -0.06362634 0 0 Z M-52.0625 38.3125 C-53.51578969 38.55985826 -54.96931391 38.80584353 -56.4230957 39.05029297 C-84.77439643 43.93038892 -112.02895603 53.17102019 -138.0625 65.3125 C-138.78405273 65.64572266 -139.50560547 65.97894531 -140.24902344 66.32226562 C-163.21394123 77.02371791 -184.77115169 90.91344991 -204.0625 107.3125 C-205.15410099 108.21976996 -206.24659425 109.12596714 -207.33984375 110.03125 C-212.90484072 114.6599749 -218.26182134 119.34279963 -223.30078125 124.55078125 C-225.00310906 126.25310906 -226.76744651 127.78299127 -228.625 129.3125 C-231.77414974 131.95920113 -234.40082356 134.86265999 -237.05859375 137.99609375 C-238.97632382 140.21288504 -240.95969472 142.35552171 -242.96557617 144.49243164 C-249.13248386 151.0887689 -254.71307417 158.04046861 -260.0625 165.3125 C-260.51705566 165.92125977 -260.97161133 166.53001953 -261.43994141 167.15722656 C-285.27063562 199.18764163 -303.57208104 236.48427752 -313.0625 275.3125 C-313.34367676 276.45090332 -313.62485352 277.58930664 -313.91455078 278.76220703 C-314.71221418 282.01421935 -315.500664 285.26799703 -316.27825928 288.52484131 C-316.73363054 290.43146177 -317.19315428 292.33708901 -317.65283203 294.24267578 C-322.56099017 315.24535133 -323.24933035 336.15730913 -323.24780273 357.6171875 C-323.24998679 361.04179367 -323.26819871 364.46607557 -323.28710938 367.890625 C-323.33004725 384.36105882 -322.64958729 400.54188313 -319.125 416.6875 C-318.95097656 417.51854248 -318.77695312 418.34958496 -318.59765625 419.20581055 C-318.09708935 421.57729224 -317.58267612 423.94525337 -317.0625 426.3125 C-316.80339844 427.50746094 -316.54429687 428.70242188 -316.27734375 429.93359375 C-315.57487329 433.06975968 -314.82992596 436.19163441 -314.0625 439.3125 C-313.66998047 440.95412109 -313.66998047 440.95412109 -313.26953125 442.62890625 C-302.84102985 484.1152153 -283.14030487 525.13525786 -256.0625 558.3125 C-255.32773438 559.23804688 -254.59296875 560.16359375 -253.8359375 561.1171875 C-248.6634736 567.56905944 -243.16342418 573.68054598 -237.53027344 579.72705078 C-236.00065763 581.37930046 -234.48726578 583.04529377 -232.9765625 584.71484375 C-228.31236747 589.85572538 -223.68497766 594.94767232 -218.34375 599.40234375 C-216.49774413 600.94805757 -214.69850269 602.52229476 -212.90625 604.12890625 C-167.28609613 644.80327701 -110.05563437 670.84941906 -49.875 680.625 C-48.89708496 680.78436035 -47.91916992 680.9437207 -46.91162109 681.10791016 C-30.86299322 683.56546638 -14.76200527 683.59057529 1.4375 683.625 C3.20379257 683.62892761 3.20379257 683.62892761 5.00576782 683.63293457 C23.32938786 683.63729693 40.92421306 682.84071723 58.9375 679.3125 C59.81148438 679.1470166 60.68546875 678.9815332 61.5859375 678.81103516 C66.04444092 677.94869449 70.4553733 676.96439363 74.85546875 675.84228516 C77.04499774 675.28514656 79.24057705 674.75763637 81.4375 674.23046875 C118.47594499 665.13310229 153.5714312 648.913794 184.9375 627.3125 C185.59814453 626.86277832 186.25878906 626.41305664 186.93945312 625.94970703 C195.74877152 619.93486476 203.90440889 613.32240606 211.9375 606.3125 C212.64132812 605.70921875 213.34515625 605.1059375 214.0703125 604.484375 C216.04593996 602.78153293 217.99494234 601.05300331 219.9375 599.3125 C220.91203125 598.44238281 221.8865625 597.57226562 222.890625 596.67578125 C230.7095204 589.62205929 237.96375137 582.19970476 244.9375 574.3125 C245.38802734 573.8067041 245.83855469 573.3009082 246.30273438 572.77978516 C283.93818728 530.29567719 309.68275624 476.66843623 320.4375 421 C320.66856445 419.80487793 320.89962891 418.60975586 321.13769531 417.37841797 C324.31543981 399.82849219 325.26528293 382.57706246 325.19824219 364.76098633 C325.18752472 361.3827923 325.19820167 358.00513113 325.2109375 354.62695312 C325.21932286 341.40564925 324.61709058 328.42888181 322.9375 315.3125 C322.83732574 314.52895142 322.73715149 313.74540283 322.63394165 312.93811035 C315.46461284 257.95404688 292.78161828 204.49835462 258.35058594 161.09570312 C257.13129369 159.55705237 255.92743387 158.0061954 254.7265625 156.453125 C250.2800329 150.75430747 245.48041058 145.45107284 240.55078125 140.171875 C238.74349549 138.19439641 237.02592958 136.22667459 235.3359375 134.15625 C233.38993847 131.84894171 231.56372264 129.96969003 229.25 128.0625 C226.08730572 125.37686017 223.19131646 122.55004023 220.3125 119.5625 C214.87867259 114.07904859 208.9803987 109.43887984 202.84570312 104.78076172 C200.92037971 103.29932684 199.02900727 101.78206851 197.140625 100.25390625 C173.6798407 81.47135722 146.13977774 66.63975649 118.03564453 56.11035156 C116.2386714 55.42702503 114.45903773 54.69839683 112.68359375 53.9609375 C101.46597916 49.33049739 89.6453073 46.42446512 77.9375 43.3125 C76.74125 42.99152344 75.545 42.67054687 74.3125 42.33984375 C67.10060716 40.54666931 59.76615975 39.39123344 52.4375 38.1875 C51.40431641 38.01645752 50.37113281 37.84541504 49.30664062 37.66918945 C37.46987492 35.79278882 25.69342053 35.15418498 13.71875 35.109375 C12.49957886 35.10367493 11.28040771 35.09797485 10.02429199 35.09210205 C7.45956267 35.08272079 4.89482167 35.07614572 2.33007812 35.07226562 C-1.52496198 35.06259417 -5.3794602 35.03151693 -9.234375 35 C-23.7937476 34.93827375 -37.73361414 35.72086051 -52.0625 38.3125 Z " fill="#F1AF33" transform="translate(358.0625,-0.31250000000000006)"/>
<path d="M0 0 C4.95 0 9.9 0 15 0 C15.01417969 1.12277344 15.02835937 2.24554688 15.04296875 3.40234375 C15.31058832 13.55941357 16.12037364 20.71373811 23.25 28.4375 C27.0798058 30.61352602 30.66794976 31.22411041 35 32 C35 36.62 35 41.24 35 46 C28.88913122 46 26.40381434 45.70260385 21.0625 43.5 C19.91910156 43.0359375 18.77570313 42.571875 17.59765625 42.09375 C16.74042969 41.7328125 15.88320313 41.371875 15 41 C15.23621575 48.44079599 16.7740035 53.53785827 22 59 C28.82428947 64.07753175 35.66587841 65.91764655 44 67 C43.67 71.62 43.34 76.24 43 81 C37.32989793 81 33.58534612 80.55200959 28.4375 78.75 C27.80392578 78.54503906 27.17035156 78.34007812 26.51757812 78.12890625 C22.12498145 76.63605671 18.72402124 74.68542672 15 72 C14.69179167 79.17508983 15.30763201 84.01424236 20.1875 89.5 C30.27718955 99.43104663 40.06723955 102.40711658 54 103 C54 107.95 54 112.9 54 118 C41.33012052 119.15180723 28.23554599 114.24133025 18 107 C16.515 106.01 16.515 106.01 15 105 C14.57641826 114.926106 14.57641826 114.926106 17.203125 124.25390625 C19.03604319 125.88662706 20.80233267 126.90498173 23 128 C23.825 128.50402344 24.65 129.00804687 25.5 129.52734375 C37.79818575 136.51339649 52.07521978 138.3523358 66 139 C66 143.29 66 147.58 66 152 C42.49902182 152.75877598 42.49902182 152.75877598 31 148 C30.06671875 147.65324219 29.1334375 147.30648437 28.171875 146.94921875 C23.74210351 145.27186376 20.11230832 143.46738499 16 141 C15.67 151.89 15.34 162.78 15 174 C46.02 174 77.04 174 109 174 C109 163.77 109 153.54 109 143 C104.05 143 99.1 143 94 143 C94 140.03 94 137.06 94 134 C98.95 134 103.9 134 109 134 C109 132.35 109 130.7 109 129 C103.72 129 98.44 129 93 129 C93 125.7 93 122.4 93 119 C98.28 119 103.56 119 109 119 C109 111.74 109 104.48 109 97 C101.74 97 94.48 97 87 97 C87 93.7 87 90.4 87 87 C104.82 87 122.64 87 141 87 C141 90.3 141 93.6 141 97 C133.41 97 125.82 97 118 97 C118 122.41 118 147.82 118 174 C149.35 174 180.7 174 213 174 C213 162.78 213 151.56 213 140 C209.7 141.98 206.4 143.96 203 146 C189.40559644 151.77522089 176.52042633 152.17636145 162 152 C162 147.71 162 143.42 162 139 C164.19076172 138.72736328 164.19076172 138.72736328 166.42578125 138.44921875 C187.19715596 135.82866908 187.19715596 135.82866908 206 127 C207.08925781 126.29230469 208.17851562 125.58460938 209.30078125 124.85546875 C212.51798315 121.4520323 212.64311656 120.01342217 212.52734375 115.51757812 C212.47707031 114.74865234 212.42679687 113.97972656 212.375 113.1875 C212.34792969 112.39923828 212.32085937 111.61097656 212.29296875 110.79882812 C212.22263676 108.86469843 212.11502458 106.93198696 212 105 C211.30390625 105.54527344 211.30390625 105.54527344 210.59375 106.1015625 C201.56735519 112.66927514 189.01021892 118.25441049 177.6875 118.0625 C175.8621875 118.0315625 175.8621875 118.0315625 174 118 C174 113.05 174 108.1 174 103 C175.85625 102.979375 177.7125 102.95875 179.625 102.9375 C191.92744091 101.99735714 202.33794821 95.40705861 210.375 86.3125 C212.66354099 81.64739721 212.8170838 77.13994516 213 72 C212.24976563 72.39832031 211.49953125 72.79664063 210.7265625 73.20703125 C201.58159732 77.94076008 194.37418579 81 184 81 C184 76.38 184 71.76 184 67 C184.97839844 66.79246094 185.95679688 66.58492188 186.96484375 66.37109375 C196.04440588 64.29907625 203.72421898 61.9346906 209.4296875 54.015625 C211.91771703 49.58864832 212.41851218 46.02214615 212 41 C211.34 41.45375 210.68 41.9075 210 42.375 C204.30173927 45.4615579 199.48937715 46 193 46 C193 41.71 193 37.42 193 33 C194.876875 32.319375 196.75375 31.63875 198.6875 30.9375 C204.28560786 28.59671285 207.46455464 26.54175914 210 21 C212.72914901 14.31358492 212.59170567 7.1451507 213 0 C217.62 0 222.24 0 227 0 C227.0825 2.26875 227.165 4.5375 227.25 6.875 C227.69978227 14.84998563 229.30178999 21.34948057 234.125 27.875 C238.15879512 30.85650074 242.2824859 32.30169492 247 34 C247 38.29 247 42.58 247 47 C239.52136987 47.65031566 233.19718614 45.13145743 227 41 C226.89525489 48.16755837 228.38513674 52.44637497 232.91796875 57.9921875 C237.7485273 62.65054978 242.49591779 64.74176738 248.875 66.25 C249.56335938 66.42273438 250.25171875 66.59546875 250.9609375 66.7734375 C252.63805318 67.19271642 254.31869349 67.59785544 256 68 C255.67 72.62 255.34 77.24 255 82 C244.71578354 80.6871213 235.73152372 78.82101581 227 73 C227.02536444 79.89912882 227.62362972 84.90006769 232.2109375 90.2265625 C241.09682424 99.03484325 250.92815472 103.4470451 263.4453125 103.859375 C266 104 266 104 267 105 C267.07271741 107.35313555 267.08370868 109.70833668 267.0625 112.0625 C267.05347656 113.35285156 267.04445313 114.64320313 267.03515625 115.97265625 C267.01775391 117.47119141 267.01775391 117.47119141 267 119 C254.11384626 119.74343195 239.10897401 115.14334017 229 107 C229 106.34 229 105.68 229 105 C228.34 105 227.68 105 227 105 C226.17588456 115.99796655 226.17588456 115.99796655 230.12890625 125.80078125 C232.98793898 127.89523624 235.80327265 129.47465802 239 131 C240.27617188 131.72703125 240.27617188 131.72703125 241.578125 132.46875 C252.52249064 138.24307789 265.84985241 139.1443558 278 140 C278 144.29 278 148.58 278 153 C258.68774527 153.41187273 244.00157764 150.71518722 227 141 C227 151.89 227 162.78 227 174 C248.45 174 269.9 174 292 174 C290.65660625 180.71696873 290.65660625 180.71696873 288 184 C285.3896063 184.62099248 285.3896063 184.62099248 282.18039417 184.61523914 C280.95871597 184.62519439 279.73703777 184.63514963 278.47833902 184.64540654 C277.11550355 184.63114041 275.75267285 184.6164124 274.3898468 184.60127258 C272.9476975 184.60345176 271.50555011 184.60782744 270.06341332 184.61421841 C266.09079021 184.62543196 262.11883737 184.60535391 258.14629972 184.58032811 C253.86614865 184.55878961 249.58603716 184.56603883 245.30584717 184.56983948 C237.88695083 184.57246467 230.4682739 184.55674159 223.04943275 184.52865028 C212.32299575 184.48806121 201.59666513 184.47499778 190.87015965 184.46871033 C173.46831122 184.45775991 156.0665798 184.42446549 138.66479492 184.37719727 C121.75789985 184.33132098 104.85103652 184.29591963 87.9440918 184.2746582 C86.90241851 184.27334459 85.86074522 184.27203097 84.78750608 184.27067754 C79.56187732 184.26415248 74.33624833 184.25783391 69.11061919 184.25161803 C25.74033173 184.19976177 -17.62982811 184.11167619 -61 184 C-64 177.375 -64 177.375 -64 174 C-42.55 174 -21.1 174 1 174 C1 163.11 1 152.22 1 141 C-2.63 142.98 -6.26 144.96 -10 147 C-23.86736795 152.6461914 -36.25734005 153.15233518 -51 153 C-51 148.71 -51 144.42 -51 140 C-49.89785156 139.91363281 -48.79570312 139.82726562 -47.66015625 139.73828125 C-31.12951364 138.27942494 -13.27217712 135.27217712 -1 123 C-0.69324768 120.10032243 -0.48826629 117.28216822 -0.375 114.375 C-0.31699219 113.17230469 -0.31699219 113.17230469 -0.2578125 111.9453125 C-0.16346069 109.96392444 -0.08063785 107.98199355 0 106 C-0.62003906 106.44730469 -1.24007812 106.89460938 -1.87890625 107.35546875 C-9.59593624 112.62371775 -17.08528095 115.43476574 -26 118 C-26.70769531 118.20753906 -27.41539062 118.41507812 -28.14453125 118.62890625 C-30.38283136 119.07656627 -32.46940885 119.09603811 -34.75 119.0625 C-36.85375 119.0315625 -36.85375 119.0315625 -39 119 C-39 114.05 -39 109.1 -39 104 C-36.628125 103.814375 -34.25625 103.62875 -31.8125 103.4375 C-20.90771622 102.25914834 -11.75544888 97.6894484 -4.26953125 89.578125 C-1.27679352 85.8579218 -0.67809736 83.51050914 -0.375 78.8125 C-0.30023438 77.72582031 -0.22546875 76.63914062 -0.1484375 75.51953125 C-0.09945312 74.68808594 -0.05046875 73.85664063 0 73 C-0.73283203 73.64388672 -0.73283203 73.64388672 -1.48046875 74.30078125 C-4.8885612 76.59926221 -8.44884298 77.83505307 -12.3125 79.1875 C-13.04662109 79.46013672 -13.78074219 79.73277344 -14.53710938 80.01367188 C-19.23216776 81.67589752 -23.02321676 82.29584577 -28 82 C-28.95397287 77.23013567 -29.03998805 72.83855385 -29 68 C-27.85402344 67.69707031 -26.70804688 67.39414062 -25.52734375 67.08203125 C-23.99719074 66.65959637 -22.46725408 66.23637727 -20.9375 65.8125 C-20.18533203 65.61591797 -19.43316406 65.41933594 -18.65820312 65.21679688 C-12.07933485 63.36560018 -6.53118077 60.61063155 -2.625 54.75 C-0.5316902 50.69756692 -0.20411703 46.50078061 0 42 C-1.30324219 42.54140625 -1.30324219 42.54140625 -2.6328125 43.09375 C-3.78523438 43.5578125 -4.93765625 44.021875 -6.125 44.5 C-7.26195312 44.9640625 -8.39890625 45.428125 -9.5703125 45.90625 C-12.9471645 46.98315041 -15.48614728 47.21360807 -19 47 C-20.20568053 42.32798795 -20.09382426 37.78503708 -20 33 C-19.43152344 32.92523438 -18.86304688 32.85046875 -18.27734375 32.7734375 C-12.11699747 31.72443029 -8.03444882 29.85668703 -4 25 C0.26705583 17.4615347 -0.27902625 8.46700335 0 0 Z " fill="#F8FCFA" transform="translate(245,266)"/>
<path d="M0 0 C112.2 0 224.4 0 340 0 C338 5 338 5 335 11 C225.77 11 116.54 11 4 11 C1 4 1 4 0 0 Z " fill="#EDF6F3" transform="translate(189,459)"/>
<path d="M0 0 C104.94 0 209.88 0 318 0 C316.11900578 3.76198844 314.10046807 7.35918868 312 11 C273.11966086 11.20593795 234.23939272 11.36455526 195.35861727 11.45958797 C190.76983901 11.47084451 186.18106182 11.48249339 181.59228516 11.49438477 C180.6787309 11.49674556 179.76517664 11.49910635 178.82393892 11.50153869 C164.02594635 11.54071538 149.228268 11.61168441 134.43046193 11.69437516 C119.24986597 11.77849834 104.06943474 11.82852032 88.88861525 11.84679645 C79.51878765 11.85915431 70.14984815 11.8982021 60.7802939 11.9712482 C54.35778102 12.0187724 47.93572815 12.03321251 41.51305215 12.0215124 C37.80546164 12.01573933 34.09942416 12.02466958 30.39210892 12.07284927 C26.37321013 12.12469726 22.35762682 12.10692344 18.33847046 12.08229065 C16.57874076 12.12161401 16.57874076 12.12161401 14.78346097 12.16173178 C7.07763229 12.03362291 7.07763229 12.03362291 3.9089005 8.99429882 C0 3.32438665 0 3.32438665 0 0 Z " fill="#ECF6F2" transform="translate(200,478)"/>
<path d="M0 0 C95.04 0 190.08 0 288 0 C282.45311795 8.32032307 282.45311795 8.32032307 280 10 C276.41919717 10.60375759 272.87070599 10.55641109 269.24664307 10.53485107 C268.13814365 10.5439133 267.02964424 10.55297553 265.88755393 10.56231236 C262.15956872 10.58770684 258.43216389 10.58435294 254.70410156 10.58105469 C252.03670056 10.59301876 249.36934559 10.60651443 246.70196533 10.62176514 C240.19999657 10.65500047 233.69817284 10.66598494 227.19612625 10.66821465 C221.91022762 10.67011516 216.62437684 10.67833346 211.33849335 10.69101715 C196.35081922 10.72624844 181.36325969 10.74469424 166.37554386 10.74169526 C165.56744447 10.74153543 164.75934507 10.74137561 163.92675781 10.74121094 C163.11767108 10.74104741 162.30858436 10.74088389 161.47497985 10.74071541 C148.36632539 10.73909006 135.25813081 10.77735373 122.14960936 10.8337644 C108.68870358 10.8912341 95.228022 10.91884428 81.76699042 10.9153893 C74.21008629 10.91406174 66.65366403 10.92503387 59.09687042 10.9681015 C52.66162475 11.00454204 46.22707924 11.0132079 39.79177502 10.98606381 C36.50925921 10.97300974 33.2283638 10.97709535 29.94592285 11.00747681 C26.38317842 11.03831665 22.82395902 11.01981818 19.2612915 10.98895264 C17.71283141 11.01981402 17.71283141 11.01981402 16.1330893 11.05129886 C10.42163611 10.94196564 7.46463973 10.09815449 3.29616928 6.06319046 C0 2.40962998 0 2.40962998 0 0 Z " fill="#F8FCFA" transform="translate(215,498)"/>
<path d="M0 0 C83.16 0 166.32 0 252 0 C249.525 2.475 249.525 2.475 247 5 C246.10032092 5.91447466 245.20064184 6.82894932 244.27369976 7.77113533 C239.91312408 10.73998824 236.77859613 10.71178665 231.62080383 10.66183472 C230.68422146 10.67245693 229.7476391 10.68307915 228.78267545 10.69402325 C225.64816063 10.72330398 222.51475684 10.71690114 219.38012695 10.71044922 C217.13109576 10.72377479 214.882076 10.73916646 212.6330719 10.75646973 C206.52536232 10.79637249 200.41801763 10.80397132 194.31019235 10.80335379 C189.20851379 10.80513409 184.10691556 10.82105561 179.00526303 10.83647549 C166.27664767 10.87403479 153.54830702 10.87888394 140.81966742 10.87016775 C129.78234861 10.86378495 118.74575544 10.90370924 107.70862386 10.96505271 C96.36184594 11.02762108 85.01552423 11.05564902 73.66853112 11.05014813 C67.30361725 11.047573 60.93946757 11.05868974 54.57470131 11.10439682 C48.58488018 11.14610352 42.59660607 11.14425229 36.60675621 11.10943604 C34.41343896 11.10394484 32.22002018 11.11369636 30.02685547 11.14014053 C11.41937112 11.34938036 11.41937112 11.34938036 4.10832214 5.49368286 C1.62343121 3.02769661 1.62343121 3.02769661 0 1 C0 0.67 0 0.34 0 0 Z " fill="#FBFDFC" transform="translate(233,517)"/>
<path d="M0 0 C66 0 132 0 200 0 C191.61681497 8.38318503 182.5442069 12.00682749 170.86795044 12.07312012 C169.37151156 12.05598067 167.87508202 12.0380092 166.37866211 12.01928711 C164.76222036 12.02851582 163.1457951 12.04115475 161.52940369 12.05690002 C157.1818563 12.08880955 152.83587908 12.07100638 148.48836589 12.04167247 C143.91405912 12.01749563 139.33985455 12.03358276 134.76551819 12.04335022 C127.08846598 12.05329546 119.4120375 12.03040844 111.73510742 11.98803711 C102.88919363 11.93965027 94.04453323 11.94498022 85.19857973 11.9787311 C76.64905926 12.00996416 68.10000159 12.00143668 59.55047798 11.97564888 C55.92987092 11.96549678 52.30968626 11.96924835 48.68910027 11.98463249 C44.41781171 12.00109116 40.1480076 11.98251102 35.87693214 11.93810081 C34.31984933 11.92734811 32.76263155 11.92816154 31.20557404 11.94210434 C20.48825663 12.02799612 12.84769937 10.29760506 4 4 C2.68 2.68 1.36 1.36 0 0 Z " fill="#EDF6F3" transform="translate(259,536)"/>
<path d="M0 0 C0.66 0.33 1.32 0.66 2 1 C1.88398438 2.14662109 1.88398438 2.14662109 1.765625 3.31640625 C1.71340363 6.06008438 1.71340363 6.06008438 3.609375 7.58984375 C4.31578125 8.03457031 5.0221875 8.47929687 5.75 8.9375 C9.51583982 11.56156923 11.9690838 13.76892457 14 18 C15.31623542 25.63416546 12.1363513 31.65643603 8 38 C4.22596042 42.09553184 0.55983461 45.74401654 -5.125 46.3125 C-8.75604141 46.01967408 -10.03216051 45.62425327 -13.0625 43.9375 C-16.09976963 42.25012799 -16.84709729 41.98907838 -20.5 42.25 C-21.325 42.4975 -22.15 42.745 -23 43 C-21.24856322 38.24745264 -18.92311774 33.84484383 -16.5625 29.375 C-16.13018066 28.55410889 -15.69786133 27.73321777 -15.25244141 26.88745117 C-10.41598106 17.78255953 -5.23782134 8.87845275 0 0 Z " fill="#1C9066" transform="translate(474,123)"/>
<path d="M0 0 C1.86554004 2.24774824 3.3869314 4.36159183 4.9375 6.8125 C5.8943721 8.26528641 6.85278282 9.71706024 7.8125 11.16796875 C8.32167969 11.94575684 8.83085937 12.72354492 9.35546875 13.52490234 C12.29660762 17.95145607 15.3748502 22.28206545 18.4375 26.625 C20.63200052 29.74516987 22.8202683 32.86949562 25 36 C25.64219482 36.91410645 25.64219482 36.91410645 26.29736328 37.84667969 C29 41.76722247 29 41.76722247 29 44 C24.6386001 46.05954995 24.6386001 46.05954995 22.02856445 45.81616211 C19.30113283 44.7188214 18.43478627 43.30215478 16.79296875 40.87890625 C16.20580078 40.02490234 15.61863281 39.17089844 15.01367188 38.29101562 C14.41103516 37.39060547 13.80839844 36.49019531 13.1875 35.5625 C12.59646484 34.69689453 12.00542969 33.83128906 11.39648438 32.93945312 C10.20100615 31.18860552 9.01074157 29.4341868 7.82568359 27.67626953 C5.3708154 24.07767832 2.82930883 20.54259876 0.27856445 17.01147461 C-1 15 -1 15 -1 13 C-1.66 13 -2.32 13 -3 13 C-2.98839844 14.01835938 -2.97679687 15.03671875 -2.96484375 16.0859375 C-2.9037011 23.96769543 -3.0060232 31.81611866 -3.4375 39.6875 C-3.47673584 40.4285498 -3.51597168 41.16959961 -3.55639648 41.93310547 C-3.79882545 46.01391544 -4.24702394 49.98201853 -5 54 C-7.64 54.66 -10.28 55.32 -13 56 C-13.35434595 37.59369672 -12.25708453 19.35142813 -11 1 C-3.65533294 -1.57830587 -3.65533294 -1.57830587 0 0 Z " fill="#F3F9F7" transform="translate(294,105)"/>
<path d="M0 0 C2.3125 2.0625 2.3125 2.0625 4 4 C2.0777263 10.47472427 -0.50187789 16.21595902 -3.75 22.125 C-7.57204957 29.21610987 -11.12296531 36.35854606 -14.4296875 43.703125 C-16.12288331 47.25799381 -18.00921742 50.60446608 -20 54 C-21.98 52.35 -23.96 50.7 -26 49 C-25.40417881 45.43613582 -24.45127473 42.48869187 -22.890625 39.234375 C-22.46523438 38.34363281 -22.03984375 37.45289063 -21.6015625 36.53515625 C-21.15554688 35.61605469 -20.70953125 34.69695312 -20.25 33.75 C-19.81945312 32.84636719 -19.38890625 31.94273437 -18.9453125 31.01171875 C-16.45007531 25.81953359 -13.80974673 20.76398143 -10.90917969 15.78613281 C-9.84878874 14.03697312 -9.84878874 14.03697312 -10 12 C-11.010625 12.598125 -12.02125 13.19625 -13.0625 13.8125 C-15.94455205 15.51820428 -18.91914375 16.85517979 -22.00415039 18.15454102 C-25.75287655 19.74253352 -29.46716299 21.40935767 -33.1875 23.0625 C-33.98091797 23.41376953 -34.77433594 23.76503906 -35.59179688 24.12695312 C-36.74325195 24.63838867 -36.74325195 24.63838867 -37.91796875 25.16015625 C-38.60656982 25.46574463 -39.2951709 25.77133301 -40.00463867 26.08618164 C-42.02483801 27.0113751 -44.01260204 28.00630102 -46 29 C-47.98 26.69 -49.96 24.38 -52 22 C-51.0821875 21.54109375 -50.164375 21.0821875 -49.21875 20.609375 C-48.62779541 20.31385742 -48.03684082 20.01833984 -47.42797852 19.71386719 C-46.13693015 19.06842475 -44.84575057 18.42324473 -43.55444336 17.77832031 C-40.87829053 16.44142669 -38.2031901 15.10304411 -35.53515625 13.75 C-32.65343034 12.28916469 -29.77430625 10.90476825 -26.796875 9.6484375 C-22.67293094 7.89454481 -18.6848485 5.89775466 -14.6875 3.875 C-13.97271484 3.51535156 -13.25792969 3.15570313 -12.52148438 2.78515625 C-10.68015893 1.85841941 -8.83999539 0.9293748 -7 0 C-4.23382717 -1.38308641 -2.92591209 -0.90563946 0 0 Z " fill="#F3F9F7" transform="translate(543,170)"/>
<path d="M0 0 C3.3 0.33 6.6 0.66 10 1 C11.03616469 5.34000127 11.20900438 9.62465786 11.375 14.0625 C11.6804834 20.9248904 12.45387144 27.59775996 13.5625 34.375 C14.74994238 41.64153233 15.40514297 48.61739469 15 56 C12.36 55.67 9.72 55.34 7 55 C6.42502757 50.28667882 5.85555575 45.57273641 5.29101562 40.8581543 C5.09849035 39.25673807 4.90450285 37.6554969 4.70898438 36.05444336 C4.42707337 33.74377993 4.15054936 31.43252341 3.875 29.12109375 C3.78750488 28.41351425 3.70000977 27.70593475 3.60986328 26.97691345 C3.09547352 22.60799656 2.91980798 18.38800726 3 14 C2.34 14 1.68 14 1 14 C0.73952881 14.877771 0.47905762 15.75554199 0.21069336 16.65991211 C-0.99273379 19.97995382 -2.4205962 22.50896846 -4.37109375 25.44140625 C-5.02787109 26.43720703 -5.68464844 27.43300781 -6.36132812 28.45898438 C-7.3890332 29.99522461 -7.3890332 29.99522461 -8.4375 31.5625 C-9.79106123 33.60500725 -11.14394979 35.64796048 -12.49609375 37.69140625 C-13.09607178 38.59060791 -13.6960498 39.48980957 -14.31420898 40.41625977 C-15.94089037 42.90940518 -17.48589384 45.43724475 -19 48 C-21.97 47.67 -24.94 47.34 -28 47 C-26.73308528 43.63117539 -25.28885203 40.63654002 -23.3828125 37.5859375 C-22.86364258 36.75102783 -22.34447266 35.91611816 -21.80957031 35.0559082 C-21.25366211 34.1712085 -20.69775391 33.28650879 -20.125 32.375 C-19.26793457 31.00057739 -19.26793457 31.00057739 -18.39355469 29.59838867 C-13.85794002 22.33554556 -9.28826139 15.0937288 -4.69580078 7.86669922 C-4.22384277 7.12307129 -3.75188477 6.37944336 -3.265625 5.61328125 C-2.64349121 4.63548706 -2.64349121 4.63548706 -2.00878906 3.63793945 C-0.94794612 1.96944075 -0.94794612 1.96944075 0 0 Z " fill="#F5FAF8" transform="translate(412,101)"/>
<path d="M0 0 C7.125 4.75 7.125 4.75 8.625 7.75 C8.74889818 9.99745534 8.8006285 12.24916342 8.8125 14.5 C8.82667969 15.71171875 8.84085938 16.9234375 8.85546875 18.171875 C8.62741822 21.71245618 7.90284652 24.45689355 6.625 27.75 C-0.2442451 27.12284014 -7.0551588 26.28114366 -13.875 25.25 C-14.76703125 25.11980469 -15.6590625 24.98960937 -16.578125 24.85546875 C-17.85429688 24.66404297 -17.85429688 24.66404297 -19.15625 24.46875 C-19.92001953 24.35466797 -20.68378906 24.24058594 -21.47070312 24.12304688 C-23.375 23.75 -23.375 23.75 -25.375 22.75 C-25.1446372 7.65076531 -25.1446372 7.65076531 -19.375 1.75 C-14.18994501 -2.97755014 -6.22425849 -2.30528092 0 0 Z " fill="#219369" transform="translate(595.375,398.25)"/>
<path d="M0 0 C7.16880069 -0.95584009 12.10809474 2.13110651 18 6 C21.07635525 8.43246694 21.82391865 9.82267176 22.3984375 13.6640625 C22.7846988 20.92945366 21.53443994 26.25637608 17 32 C13.21315226 35.57045644 9.36442982 35.2948739 4.40234375 35.203125 C2.13206001 35.01116605 0.15242857 34.7478371 -2 34 C-2.33 33.34 -2.66 32.68 -3 32 C-4.65 32 -6.3 32 -8 32 C-9.69987151 27.91196545 -8.15483064 24.46284847 -6.8125 20.5 C-6.58344971 19.79746094 -6.35439941 19.09492187 -6.1184082 18.37109375 C-5.42230106 16.24392544 -4.71226321 14.12180513 -4 12 C-3.59523438 10.7728125 -3.19046875 9.545625 -2.7734375 8.28125 C-1.85873487 5.51740031 -0.93471029 2.75713427 0 0 Z " fill="#219369" transform="translate(280,574)"/>
<path d="M0 0 C4.11963008 2.77835517 6.79689524 6.23949874 8.6875 10.8125 C9.31587093 16.12442637 9.60177906 21.08943562 7.0625 25.875 C2.97460771 29.2098595 0.01120142 30.8125 -5.3125 30.8125 C-5.3125 31.8025 -5.3125 32.7925 -5.3125 33.8125 C-7.7875 34.3075 -7.7875 34.3075 -10.3125 34.8125 C-14.9325 25.2425 -19.5525 15.6725 -24.3125 5.8125 C-17.49654113 -1.00345887 -9.29057422 -3.33058321 0 0 Z " fill="#22936A" transform="translate(464.3125,567.1875)"/>
<path d="M0 0 C1.10644531 1.47094727 1.10644531 1.47094727 2.328125 3.56640625 C3.0238562 4.74408569 3.0238562 4.74408569 3.73364258 5.94555664 C4.23404053 6.80914795 4.73443848 7.67273926 5.25 8.5625 C6.32029951 10.38618911 7.39197285 12.20907245 8.46484375 14.03125 C9.03315918 14.99804688 9.60147461 15.96484375 10.18701172 16.9609375 C12.06753368 20.11320486 13.99636405 23.23091953 15.94140625 26.34375 C16.58625977 27.38072021 17.23111328 28.41769043 17.89550781 29.48608398 C19.16219091 31.51887483 20.4361635 33.54714352 21.71777344 35.57055664 C22.29172852 36.49731201 22.86568359 37.42406738 23.45703125 38.37890625 C23.97241455 39.1994751 24.48779785 40.02004395 25.01879883 40.86547852 C26 43 26 43 25 46 C22.8125 47.8125 22.8125 47.8125 20 49 C13.13118079 47.21314633 7.15720752 43.42298994 1 40 C-0.63388672 39.14148438 -0.63388672 39.14148438 -2.30078125 38.265625 C-11.22105161 33.42224035 -15.84160517 28.2408774 -20 19 C-12.31030745 21.16888764 -5.66980046 25.47145852 0.98046875 29.7890625 C3.58048339 31.34806547 6.27811562 32.66793212 9 34 C7.85950556 31.9551898 6.71386928 29.91368762 5.5625 27.875 C5.2106665 27.25133545 4.85883301 26.6276709 4.49633789 25.98510742 C1.46515828 20.67705402 -1.81717634 15.56084481 -5.29272461 10.53271484 C-6.27164762 9.07021199 -7.14567943 7.53861666 -8 6 C-6.72879117 2.18637351 -4.19078006 0 0 0 Z " fill="#F3F9F7" transform="translate(240,123)"/>
<path d="M0 0 C37.62 0 75.24 0 114 0 C96.67348539 11.55100974 67.53659162 9.46338864 47.69189453 9.05322266 C45.33436241 9.00661083 42.97896351 8.99093838 40.62109375 8.98046875 C29.70139992 8.69226569 7.92881389 7.92881389 0 0 Z " fill="#F7FBF9" transform="translate(302,556)"/>
<path d="M0 0 C2.97 0 5.94 0 9 0 C10.24201185 15.3255391 10.09401121 30.63439039 10 46 C18.25 46 26.5 46 35 46 C35 47.98 35 49.96 35 52 C34 53 34 53 30.85717773 53.11352539 C29.46597303 53.11336633 28.07476239 53.10767506 26.68359375 53.09765625 C25.95253922 53.0962413 25.22148468 53.09482635 24.46827698 53.09336853 C22.12464368 53.08775408 19.78110461 53.07519922 17.4375 53.0625 C15.85221492 53.05748686 14.26692834 53.05292363 12.68164062 53.04882812 C8.7877239 53.03777997 4.89387795 53.02050572 1 53 C0.85434324 48.18441702 0.71212157 43.36874762 0.57275391 38.55297852 C0.52513966 36.92306951 0.47667082 35.29318519 0.42724609 33.66333008 C0.08762329 22.43845001 -0.064752 11.22997522 0 0 Z " fill="#EDF6F3" transform="translate(338,95)"/>
<path d="M0 0 C7.65161167 2.39112865 14.28269406 7.90479431 18 15 C18.8125 17.9375 18.8125 17.9375 19 21 C19.0825 22.27875 19.165 23.5575 19.25 24.875 C19.05366858 34.29890813 13.55496112 42.51621014 7 48.96875 C1.75887494 53.05374453 -3.05104104 53.88845816 -9.625 53.609375 C-15.32931417 52.57942939 -20.07989509 49.97865811 -25 47 C-24.1875 44.5625 -24.1875 44.5625 -23 42 C-20 41 -20 41 -18.203125 41.77734375 C-17.23632812 42.35162109 -17.23632812 42.35162109 -16.25 42.9375 C-12.24988184 45.01785342 -9.56921325 45.81593094 -5 45 C1.93347315 41.5400212 5.62944852 35.77609138 9 29 C10.71270362 23.86188915 10.82038447 19.70913431 8.5 14.875 C5.38418483 11.29181256 1.90403264 8.67217768 -2 6 C-1.34 4.02 -0.68 2.04 0 0 Z " fill="#F1F8F6" transform="translate(477,123)"/>
<path d="M0 0 C7.12943999 3.99573166 14.16356585 8.00163824 20.91015625 12.625 C23.84649378 14.55694544 26.9014236 16.23148242 29.99609375 17.89453125 C32 19 32 19 34.8125 20.875 C36.88611197 22.19077713 36.88611197 22.19077713 38.97558594 21.80883789 C41.6077656 20.75717228 42.19860982 19.63404835 43.578125 17.18359375 C44.01640625 16.41982422 44.4546875 15.65605469 44.90625 14.86914062 C45.57140625 13.66547852 45.57140625 13.66547852 46.25 12.4375 C46.70890625 11.63119141 47.1678125 10.82488281 47.640625 9.99414062 C48.77208247 8.00230403 49.89115045 6.00448318 51 4 C53.475 4.495 53.475 4.495 56 5 C56.71875 6.62109375 56.71875 6.62109375 57 9 C55.59375 11.84765625 55.59375 11.84765625 53.5 15.0625 C53.13487305 15.62743164 52.76974609 16.19236328 52.39355469 16.77441406 C51.63827767 17.94296821 50.87879149 19.108812 50.11523438 20.27197266 C49.05644604 21.9125383 48.049983 23.5865284 47.046875 25.26171875 C46.45390625 26.24785156 45.8609375 27.23398438 45.25 28.25 C44.71890625 29.14203125 44.1878125 30.0340625 43.640625 30.953125 C42 33 42 33 40.16674805 33.76831055 C37.28435578 34.07652353 36.13669182 33.27613878 33.69140625 31.75390625 C32.86809814 31.25004395 32.04479004 30.74618164 31.1965332 30.22705078 C29.89268677 29.40309814 29.89268677 29.40309814 28.5625 28.5625 C27.66813232 28.01062012 26.77376465 27.45874023 25.85229492 26.89013672 C24.05654059 25.78070427 22.26392065 24.66618097 20.47460938 23.54638672 C18.3613131 22.22578504 16.24010104 20.92109949 14.109375 19.62890625 C7.97164542 15.89827204 1.93357548 12.04771041 -4 8 C-3.40072174 4.64404172 -2.15377564 2.62198774 0 0 Z " fill="#F2F9F6" transform="translate(132,225)"/>
<path d="M0 0 C2.10770759 2.88834003 3 4.38462395 3 8 C1.77990234 8.69222656 1.77990234 8.69222656 0.53515625 9.3984375 C-7.02934955 13.70399423 -14.55520257 18.06929688 -22.04858398 22.49755859 C-26.34541817 25.03526547 -30.6616494 27.5338711 -35 30 C-33.20147111 35.01494563 -30.46050701 39.41620787 -27.65820312 43.91601562 C-24.94338451 48.47356048 -24.94338451 48.47356048 -25.26171875 51.43359375 C-25.50535156 51.95050781 -25.74898437 52.46742188 -26 53 C-27.98 53.495 -27.98 53.495 -30 54 C-34.0579715 48.20996749 -37.81120313 42.21723945 -41.5 36.1875 C-41.96970215 35.44636963 -42.4394043 34.70523926 -42.92333984 33.94165039 C-43.3508252 33.23258545 -43.77831055 32.52352051 -44.21875 31.79296875 C-44.60998047 31.1589917 -45.00121094 30.52501465 -45.40429688 29.87182617 C-46 28 -46 28 -45.20922852 25.83374023 C-43.79100889 23.68307445 -42.73410989 23.01656343 -40.4375 21.875 C-35.83134937 19.46471893 -31.34927152 16.89427588 -26.875 14.25 C-25.78602417 13.60998047 -25.78602417 13.60998047 -24.67504883 12.95703125 C-20.98810971 10.78562221 -17.31801793 8.59086032 -13.671875 6.3515625 C-12.99012207 5.93487305 -12.30836914 5.51818359 -11.60595703 5.08886719 C-10.31171933 4.29579967 -9.0208543 3.49719445 -7.73388672 2.69238281 C-3.33339365 0 -3.33339365 0 0 0 Z " fill="#F2F9F6" transform="translate(578,211)"/>
<path d="M0 0 C0.66 0 1.32 0 2 0 C2.66 1.32 3.32 2.64 4 4 C5.32 4 6.64 4 8 4 C7.34 7.63 6.68 11.26 6 15 C7.98 13.68 9.96 12.36 12 11 C12.66 11.33 13.32 11.66 14 12 C15.32 12 16.64 12 18 12 C18.70421387 17.19357731 18.70421387 17.19357731 18 20 C16.06455217 21.7059652 14.16173952 22.76401791 11.84765625 23.89453125 C9.66120343 24.93016337 9.66120343 24.93016337 9 28 C6.36 28 3.72 28 1 28 C1 31.3 1 34.6 1 38 C0.67 38 0.34 38 0 38 C0 34.7 0 31.4 0 28 C-2.64 28 -5.28 28 -8 28 C-8.2784375 27.13375 -8.2784375 27.13375 -8.5625 26.25 C-10.70551122 22.89572157 -13.48822563 21.82092004 -17 20 C-17 17.36 -17 14.72 -17 12 C-14.03 12.495 -14.03 12.495 -11 13 C-11 12.34 -11 11.68 -11 11 C-9.68 11.66 -8.36 12.32 -7 13 C-7 10.03 -7 7.06 -7 4 C-5.35 4 -3.7 4 -2 4 C-1.34 2.68 -0.68 1.36 0 0 Z " fill="#EFF7F4" transform="translate(593,336)"/>
<path d="M0 0 C1.5 1.375 1.5 1.375 3 3 C3 3.66 3 4.32 3 5 C4.65 4.67 6.3 4.34 8 4 C7.34 7.63 6.68 11.26 6 15 C7.98 13.68 9.96 12.36 12 11 C12.66 11.33 13.32 11.66 14 12 C15.32 12 16.64 12 18 12 C18.70421387 17.19357731 18.70421387 17.19357731 18 20 C16.06455217 21.7059652 14.16173952 22.76401791 11.84765625 23.89453125 C9.66120343 24.93016337 9.66120343 24.93016337 9 28 C6.36 28 3.72 28 1 28 C1 31.3 1 34.6 1 38 C0.67 38 0.34 38 0 38 C0 34.7 0 31.4 0 28 C-2.64 28 -5.28 28 -8 28 C-8.2784375 27.13375 -8.2784375 27.13375 -8.5625 26.25 C-10.70551122 22.89572157 -13.48822563 21.82092004 -17 20 C-17 17.36 -17 14.72 -17 12 C-14.03 12.495 -14.03 12.495 -11 13 C-11 12.34 -11 11.68 -11 11 C-9.68 11.66 -8.36 12.32 -7 13 C-6.67 12.67 -6.34 12.34 -6 12 C-6.1018371 10.08575543 -6.1018371 10.08575543 -6.4375 7.9375 C-6.623125 6.638125 -6.80875 5.33875 -7 4 C-5.35 4 -3.7 4 -2 4 C-1.34 2.68 -0.68 1.36 0 0 Z " fill="#F1F8F5" transform="translate(123,336)"/>
<path d="M0 0 C4.25223418 2.43544167 7.11976879 5.46481268 9 10 C9.86815867 16.61970987 9.86815867 16.61970987 7.76171875 19.96875 C6.24602236 21.74395769 4.68250402 23.38299492 3 25 C2.54238281 25.54011719 2.08476562 26.08023438 1.61328125 26.63671875 C-0.48534872 28.4101373 -2.31557042 28.63723925 -5 29 C-6.66090369 26.62728044 -8.32037668 24.25374196 -9.97265625 21.875 C-11.30818601 19.98106956 -12.66980601 18.10523068 -14.05859375 16.25 C-14.69925781 15.38375 -15.33992187 14.5175 -16 13.625 C-16.598125 12.83351562 -17.19625 12.04203125 -17.8125 11.2265625 C-19 9 -19 9 -18.90234375 6.8828125 C-15.62901102 0.0527416 -6.75195114 -1.56996587 0 0 Z " fill="#23946B" transform="translate(266,200)"/>
<path d="M0 0 C4.06240002 1.21216775 6.57460813 2.3619122 9 6 C10.01572713 12.61826412 9.40810559 17.95921591 5.41796875 23.40234375 C3.40270848 25.67298136 1.88099077 26.97107473 -1 28 C-5.46867855 28 -7.40913474 27.48810609 -10.875 24.625 C-14.54861 20.08701117 -14.53814057 15.61203741 -14 10 C-11.21608456 2.62262409 -8.1515532 -0.96713343 0 0 Z " fill="#1F9268" transform="translate(403,174)"/>
<path d="M0 0 C2.31 0.33 4.62 0.66 7 1 C7.5878125 2.8253125 7.5878125 2.8253125 8.1875 4.6875 C10.19016458 9.84891279 12.42686928 12.82338101 17.60546875 15.19140625 C24.29329242 17.67446627 30.87260885 19.21885354 38 18 C40.02951535 16.71203834 42.03501678 15.38442 44 14 C47.875 14.25 47.875 14.25 51 15 C49.60192483 19.89326308 47.09570565 22.0857479 43 25 C34.47860374 28.4085585 24.90537381 28.02501156 16.28125 25.04296875 C9.89127993 22.12152695 5.11698624 17.61407214 1 12 C0.03929566 9.11788698 -0.10581883 7.30149956 -0.0625 4.3125 C-0.05347656 3.50425781 -0.04445313 2.69601562 -0.03515625 1.86328125 C-0.02355469 1.24839844 -0.01195313 0.63351562 0 0 Z " fill="#F5FAF8" transform="translate(108,279)"/>
<path d="M0 0 C0.28117676 0.51771973 0.56235352 1.03543945 0.85205078 1.56884766 C4.35185298 7.94704428 8.08039183 14.16863437 11.875 20.375 C12.46152344 21.33921875 13.04804688 22.3034375 13.65234375 23.296875 C17.23699609 29.17412917 20.90978899 34.97485163 24.71923828 40.70947266 C26 43 26 43 26 46 C23.11165997 48.10770759 21.61537605 49 18 49 C16.47130819 46.8358881 15.16760617 44.73841232 13.875 42.4375 C13.07188479 41.05322862 12.26849164 39.66911845 11.46484375 38.28515625 C11.0560498 37.57246582 10.64725586 36.85977539 10.22607422 36.12548828 C8.33711165 32.85083514 6.3870005 29.61383695 4.4375 26.375 C4.07140625 25.76100342 3.7053125 25.14700684 3.328125 24.5144043 C1.46989217 21.40408039 -0.42106124 18.32218507 -2.37890625 15.2734375 C-2.756521 14.67998535 -3.13413574 14.0865332 -3.52319336 13.47509766 C-4.56230884 11.8481555 -5.6128302 10.22851441 -6.6640625 8.609375 C-7.32535156 7.31773437 -7.32535156 7.31773437 -8 6 C-6.72879117 2.18637351 -4.19078006 0 0 0 Z " fill="#F2F9F6" transform="translate(215,138)"/>
<path d="M0 0 C3.63790402 0.29295395 5.36108119 2.01821962 7.828125 4.5703125 C8.54613281 5.3025 9.26414063 6.0346875 10.00390625 6.7890625 C10.74511719 7.55992187 11.48632812 8.33078125 12.25 9.125 C17.07360243 14.09425295 21.92161126 18.89887348 27.17871094 23.41015625 C29.73949679 25.6455232 32.11293001 28.01727626 34.5 30.4375 C35.3559375 31.30246094 36.211875 32.16742188 37.09375 33.05859375 C37.7228125 33.69925781 38.351875 34.33992188 39 35 C37.59284684 38.40062014 35.97131772 39.89229698 33 42 C24.5912563 34.66814854 16.73173284 26.84963556 8.875 18.9375 C7.62002796 17.67749898 6.36482114 16.41773176 5.109375 15.15820312 C2.07020916 12.10815147 -0.96578227 9.0549738 -4 6 C-2.84826645 3.53199953 -1.95216435 1.95216435 0 0 Z " fill="#F4FAF8" transform="translate(165,179)"/>
<path d="M0 0 C0.495 3.465 0.495 3.465 1 7 C0.43152344 7.18175781 -0.13695312 7.36351562 -0.72265625 7.55078125 C-4.40708911 8.75022099 -7.95698326 9.9807961 -11.5 11.5625 C-14.19171134 12.6680243 -16.25163105 13.31778812 -19.04296875 13.86328125 C-25.41697174 15.23062235 -31.47987893 17.45777205 -37.62304688 19.609375 C-38.96399414 20.06957031 -38.96399414 20.06957031 -40.33203125 20.5390625 C-41.53436401 20.95986084 -41.53436401 20.95986084 -42.76098633 21.38916016 C-45 22 -45 22 -49 22 C-50.15478444 19.55457412 -51.0310928 17.68015493 -50.90625 14.94921875 C-50 13 -50 13 -47.62109375 11.91015625 C-46.57050781 11.63042969 -45.51992188 11.35070312 -44.4375 11.0625 C-43.25671875 10.7325 -42.0759375 10.4025 -40.859375 10.0625 C-40.22837891 9.89105469 -39.59738281 9.71960938 -38.94726562 9.54296875 C-35.66919911 8.62892413 -32.43162669 7.58928881 -29.1875 6.5625 C-27.84117005 6.14445325 -26.49481559 5.72648544 -25.1484375 5.30859375 C-22.28855544 4.41496568 -19.44296293 3.48585038 -16.6015625 2.53515625 C-15.88331299 2.29917725 -15.16506348 2.06319824 -14.42504883 1.82006836 C-13.05188839 1.36827271 -11.68169247 0.90732861 -10.31518555 0.43579102 C-6.50044157 -0.80687206 -3.86003726 -1.19565208 0 0 Z " fill="#F4F9F7" transform="translate(605,264)"/>
<path d="M0 0 C2.91985181 0.68088981 5.35122304 1.58101234 8 3 C6.65377682 6.52514543 5.10532572 9.82144148 3.3125 13.140625 C2.78293701 14.12160156 2.25337402 15.10257813 1.70776367 16.11328125 C1.14420166 17.14839844 0.58063965 18.18351562 0 19.25 C-0.57580811 20.31089844 -1.15161621 21.37179688 -1.74487305 22.46484375 C-6.63534775 31.42812362 -11.73484041 40.25246624 -17 49 C-20.37462715 48.45276317 -22.08235 47.9451 -25 46 C-23.65377682 42.47485457 -22.10532572 39.17855852 -20.3125 35.859375 C-19.78293701 34.87839844 -19.25337402 33.89742187 -18.70776367 32.88671875 C-18.14420166 31.85160156 -17.58063965 30.81648438 -17 29.75 C-16.42419189 28.68910156 -15.84838379 27.62820312 -15.25512695 26.53515625 C-10.36465225 17.57187638 -5.26515959 8.74753376 0 0 Z " fill="#F2F8F6" transform="translate(467,118)"/>
<path d="M0 0 C1.4540625 0.0309375 1.4540625 0.0309375 2.9375 0.0625 C3.18395264 0.58569824 3.43040527 1.10889648 3.68432617 1.64794922 C4.8300182 4.07836707 5.97736014 6.50800132 7.125 8.9375 C7.53484131 9.80632813 7.94468262 10.67515625 8.36694336 11.5703125 C10.86546898 16.85096146 13.42250148 22.08809202 16.16015625 27.25 C16.9375 29.0625 16.9375 29.0625 16.9375 32.0625 C15.2875 32.0625 13.6375 32.0625 11.9375 32.0625 C11.38320313 30.94230469 10.82890625 29.82210937 10.2578125 28.66796875 C9.52614809 27.19525962 8.79437139 25.72260628 8.0625 24.25 C7.69769531 23.51201172 7.33289063 22.77402344 6.95703125 22.01367188 C6.60253906 21.30146484 6.24804688 20.58925781 5.8828125 19.85546875 C5.55812988 19.2008667 5.23344727 18.54626465 4.89892578 17.87182617 C3.84494328 15.81597202 3.84494328 15.81597202 1.9375 13.0625 C1.9375 11.7425 1.9375 10.4225 1.9375 9.0625 C1.2775 9.0625 0.6175 9.0625 -0.0625 9.0625 C-0.18625 10.34125 -0.31 11.62 -0.4375 12.9375 C-1.24624829 20.17067129 -2.54016484 27.2161617 -5.0625 34.0625 C-6.7125 34.0625 -8.3625 34.0625 -10.0625 34.0625 C-6.22074006 0.12695388 -6.22074006 0.12695388 0 0 Z " fill="#EBF5F1" transform="translate(383.0625,585.9375)"/>
<path d="M0 0 C2.78980542 0.10578894 5.42706694 0.33327759 8.1875 0.6875 C9.38415283 0.83034424 9.38415283 0.83034424 10.60498047 0.97607422 C18.15528354 1.92416822 25.57208665 3.35665634 33 5 C33.495 6.485 33.495 6.485 34 8 C33.67 8.66 33.34 9.32 33 10 C26.83740819 10.22615016 21.48027281 9.44149898 15.5 8 C14.67757812 7.80921875 13.85515625 7.6184375 13.0078125 7.421875 C11.00337593 6.95572696 9.00141137 6.47897024 7 6 C13.17197341 13.79424454 13.17197341 13.79424454 20.125 20.875 C21.82421875 22.49609375 21.82421875 22.49609375 23 24 C22.9375 26.9375 22.9375 26.9375 22 29 C19 29 19 29 16.6171875 26.76171875 C15.69371037 25.74545528 14.78021915 24.72005981 13.875 23.6875 C13.39434082 23.14931641 12.91368164 22.61113281 12.41845703 22.05664062 C10.93302459 20.3816723 9.46399224 18.6937249 8 17 C7.54625 16.47744629 7.0925 15.95489258 6.625 15.41650391 C-1.72652812 5.73208681 -1.72652812 5.73208681 -2 2 C-1.34 1.34 -0.68 0.68 0 0 Z " fill="#EFF7F4" transform="translate(548,476)"/>
<path d="M0 0 C-0.020625 0.804375 -0.04125 1.60875 -0.0625 2.4375 C-0.29633621 4.93354885 -0.29633621 4.93354885 1 6 C1.55272553 9.7506375 1.7555086 13.42059624 0.09375 16.89453125 C-1.91803005 19.54466459 -3.76927805 20.91473319 -6.875 22.0625 C-11.72592593 21.96548148 -15.43589663 20.51364842 -18.9375 17.125 C-20.20740557 14.58518887 -20.23366867 12.80402402 -20 10 C-19.01 10 -18.02 10 -17 10 C-16.608125 10.825 -16.21625 11.65 -15.8125 12.5 C-14.31362278 15.15515351 -14.31362278 15.15515351 -12.1015625 15.40234375 C-9.635817 15.48806067 -9.635817 15.48806067 -6 15 C-3.4345406 12.4345406 -3.45953913 10.52313332 -3 7 C-10.07222073 6.54098567 -16.57185417 7.50514281 -23.46484375 8.93286133 C-26.75598853 9.61033157 -29.61695936 10 -33 10 C-33 8.02 -33 6.04 -33 4 C-29.3775765 3.31881409 -25.75173859 2.65779082 -22.125 2 C-20.60519531 1.71382813 -20.60519531 1.71382813 -19.0546875 1.421875 C-12.6276693 0.26830763 -6.52739943 -0.26058928 0 0 Z " fill="#F1F8F5" transform="translate(145,397)"/>
<path d="M0 0 C1.98 0 3.96 0 6 0 C7.72168056 7.9490358 8.90863407 15.94246854 10 24 C10.20681396 23.37432129 10.41362793 22.74864258 10.62670898 22.10400391 C11.56207682 19.27714946 12.49975921 16.45106812 13.4375 13.625 C13.76298828 12.64015625 14.08847656 11.6553125 14.42382812 10.640625 C14.73642578 9.69960938 15.04902344 8.75859375 15.37109375 7.7890625 C15.65911865 6.91975098 15.94714355 6.05043945 16.24389648 5.15478516 C17 3 17 3 18 1 C18.66 1 19.32 1 20 1 C20.05553449 2.33282775 20.09346189 3.66638865 20.125 5 C20.14820313 5.7425 20.17140625 6.485 20.1953125 7.25 C19.72765007 13.83468701 17.36933751 20.23870782 15.375 26.5 C15.14554687 27.22703125 14.91609375 27.9540625 14.6796875 28.703125 C14.12191002 30.46942035 13.56126223 32.23480888 13 34 C10.36 34 7.72 34 5 34 C3.29061989 22.67250782 1.59643236 11.34406052 0 0 Z " fill="#E6F3EE" transform="translate(317,585)"/>
<path d="M0 0 C0.99 0 1.98 0 3 0 C3.08302368 0.92280762 3.08302368 0.92280762 3.16772461 1.86425781 C3.42107482 4.65980996 3.67923694 7.45489762 3.9375 10.25 C4.02451172 11.21808594 4.11152344 12.18617188 4.20117188 13.18359375 C4.28818359 14.11816406 4.37519531 15.05273438 4.46484375 16.015625 C4.543396 16.87446289 4.62194824 17.73330078 4.70288086 18.61816406 C4.97709903 20.81641589 5.41066966 22.86718545 6 25 C6.40992188 23.77023437 6.81984375 22.54046875 7.2421875 21.2734375 C9.49479167 14.515625 11.74739583 7.7578125 14 1 C15.98 1 17.96 1 20 1 C18.60268887 7.0783034 16.7107136 12.79759595 14.5 18.625 C13.88457342 20.2627042 13.2699706 21.90071823 12.65625 23.5390625 C12.37007813 24.30250977 12.08390625 25.06595703 11.7890625 25.85253906 C10.79832734 28.54885913 9.88442641 31.26712238 9 34 C6.66705225 34.04241723 4.33297433 34.04092937 2 34 C-1.89793885 30.10206115 -1.15104026 16.18596854 -1.1875 10.875 C-1.16352039 7.10540455 -0.84161638 3.67618035 0 0 Z " fill="#E9F4F0" transform="translate(339,587)"/>
<path d="M0 0 C4.74317547 0.44122562 9.1664618 1.50657571 13.75 2.8125 C14.85859375 3.12832031 15.9671875 3.44414062 17.109375 3.76953125 C20.37741896 5.16065807 21.49051704 5.79695078 23 9 C23.21340383 11.83400286 23.28464991 14.43016169 23.1875 17.25 C23.16719727 18.36761719 23.16719727 18.36761719 23.14648438 19.5078125 C23.11127204 21.33885416 23.05746851 23.16952169 23 25 C21.02 24.34 19.04 23.68 17 23 C16.67 20.03 16.34 17.06 16 14 C14.7625 13.505 13.525 13.01 12.25 12.5 C11.55390625 12.2215625 10.8578125 11.943125 10.140625 11.65625 C7.73577305 10.80459673 7.73577305 10.80459673 4 11 C3.34 13.31 2.68 15.62 2 18 C0.35 17.67 -1.3 17.34 -3 17 C-4.56393356 13.02623171 -3.36145292 10.18622097 -2.0625 6.25 C-1.68222656 5.07953125 -1.30195313 3.9090625 -0.91015625 2.703125 C-0.60980469 1.81109375 -0.30945313 0.9190625 0 0 Z " fill="#F0F7F5" transform="translate(138,267)"/>
<path d="M0 0 C3.96218897 -0.24675554 6.35168322 0.40388948 9.875 2.1875 C15.15988874 4.74330685 20.49438485 6.54929483 26.13623047 8.1237793 C30.74283022 9.52090223 30.74283022 9.52090223 32.0546875 11.96484375 C32 14 32 14 30 17 C28.13989258 17.63183594 28.13989258 17.63183594 25.89453125 17.984375 C24.66573242 18.17966797 24.66573242 18.17966797 23.41210938 18.37890625 C22.55423828 18.50136719 21.69636719 18.62382812 20.8125 18.75 C19.97396484 18.88792969 19.13542969 19.02585937 18.27148438 19.16796875 C13.30462822 19.92017023 8.94699026 20.23203315 4 19 C2.0625 17.4375 2.0625 17.4375 1 16 C2.49853516 15.69255859 2.49853516 15.69255859 4.02734375 15.37890625 C5.96287109 14.97478516 5.96287109 14.97478516 7.9375 14.5625 C9.22527344 14.29566406 10.51304687 14.02882813 11.83984375 13.75390625 C14.84638879 13.32818384 14.84638879 13.32818384 16 12 C14.0848421 11.18395001 12.16781166 10.37229368 10.25 9.5625 C8.64898438 8.88380859 8.64898438 8.88380859 7.015625 8.19140625 C4.6586159 7.26020447 2.47007165 6.5215928 0 6 C0 4.02 0 2.04 0 0 Z " fill="#EBF5F1" transform="translate(565,433)"/>
<path d="M0 0 C9.9 0 19.8 0 30 0 C30 3.3 30 6.6 30 10 C20.1 10 10.2 10 0 10 C0 6.7 0 3.4 0 0 Z " fill="#F5FAF8" transform="translate(396,239)"/>
<path d="M0 0 C0.66 0 1.32 0 2 0 C2.50910422 3.49873754 3.005606 6.99915601 3.5 10.5 C3.64308594 11.48226562 3.78617187 12.46453125 3.93359375 13.4765625 C4.71357983 19.04789162 5.160716 24.37493985 5 30 C4.67 30 4.34 30 4 30 C3.505 27.525 3.505 27.525 3 25 C2.67 26.32 2.34 27.64 2 29 C0.24970238 28.68917128 -1.50022694 28.37626821 -3.25 28.0625 C-4.71179688 27.80146484 -4.71179688 27.80146484 -6.203125 27.53515625 C-9 27 -9 27 -11.171875 26.30859375 C-13.33544052 25.72857558 -13.33544052 25.72857558 -16 28 C-14.71846349 24.56682717 -13.23326502 21.57461954 -11.25 18.49609375 C-10.7240625 17.67302734 -10.198125 16.84996094 -9.65625 16.00195312 C-9.1096875 15.15568359 -8.563125 14.30941406 -8 13.4375 C-6.91495625 11.74979634 -5.83156038 10.06103184 -4.75 8.37109375 C-4.27046875 7.62786865 -3.7909375 6.88464355 -3.296875 6.11889648 C-2.07552233 4.123392 -1.01115579 2.10846254 0 0 Z " fill="#2D9971" transform="translate(413,115)"/>
<path d="M0 0 C0 4.18678194 -2.02541079 7.11522797 -4 10.6875 C-4.3815625 11.38939453 -4.763125 12.09128906 -5.15625 12.81445312 C-6.09859522 14.54601247 -7.04857268 16.27341426 -8 18 C-7.5059668 17.65630371 -7.01193359 17.31260742 -6.50292969 16.95849609 C-4.26300031 15.41388032 -2.00709444 13.89440991 0.25 12.375 C1.02730469 11.83359375 1.80460937 11.2921875 2.60546875 10.734375 C3.35957031 10.23164063 4.11367187 9.72890625 4.890625 9.2109375 C5.58188477 8.73962402 6.27314453 8.26831055 6.98535156 7.78271484 C9 7 9 7 11.19433594 7.67431641 C13 9 13 9 14 12 C13.15179688 12.47308594 12.30359375 12.94617188 11.4296875 13.43359375 C2.74326518 18.31736554 -5.67059905 23.53145713 -14 29 C-15.5625 27.8125 -15.5625 27.8125 -17 26 C-16.81659456 21.46270886 -14.51718331 17.51438878 -12.4375 13.5625 C-11.9115625 12.56271118 -11.9115625 12.56271118 -11.375 11.54272461 C-8.50083639 6.35759537 -5.29742467 2.83186798 0 0 Z " fill="#F0F7F4" transform="translate(168,484)"/>
<path d="M0 0 C0.66 0 1.32 0 2 0 C3.27906846 1.72043716 4.47210991 3.50508068 5.625 5.3125 C9.55248183 11.36197292 13.70839037 17.20176146 18 23 C17.67 23.66 17.34 24.32 17 25 C16.34 24.67 15.68 24.34 15 24 C15 24.66 15 25.32 15 26 C10.38 26.99 5.76 27.98 1 29 C0.67 27.02 0.34 25.04 0 23 C-0.33 23 -0.66 23 -1 23 C-0.67 15.41 -0.34 7.82 0 0 Z " fill="#26956C" transform="translate(291,118)"/>
<path d="M0 0 C1 3 1 3 -0.546875 6.65234375 C-1.27100046 8.08595243 -2.00584874 9.51418329 -2.75 10.9375 C-3.1109375 11.65357422 -3.471875 12.36964844 -3.84375 13.10742188 C-7.6276156 20.50378235 -7.6276156 20.50378235 -10 23 C-10.99 23 -11.98 23 -13 23 C-13.33 23.66 -13.66 24.32 -14 25 C-16.97 22.03 -19.94 19.06 -23 16 C-22.67 15.01 -22.34 14.02 -22 13 C-22.99 12.67 -23.98 12.34 -25 12 C-22.8137775 10.89324381 -20.62609052 9.78955622 -18.4375 8.6875 C-17.82841797 8.37876953 -17.21933594 8.07003906 -16.59179688 7.75195312 C-12.45320662 5.67170934 -8.26815364 3.79931967 -4 2 C-2.65986503 1.34711373 -1.32258472 0.68774405 0 0 Z " fill="#25956C" transform="translate(533,181)"/>
<path d="M0 0 C8.58 0 17.16 0 26 0 C26 3.3 26 6.6 26 10 C17.42 10 8.84 10 0 10 C0 6.7 0 3.4 0 0 Z " fill="#EAF4F0" transform="translate(294,255)"/>
<path d="M0 0 C6.61019555 4.17486035 12.76093314 9.07247697 18.55859375 14.3125 C20.79038754 16.18859623 20.79038754 16.18859623 23.078125 16.03515625 C25.70243636 14.62165521 26.99511377 12.83359465 28.75 10.4375 C29.36359375 9.61121094 29.9771875 8.78492188 30.609375 7.93359375 C31.29773438 6.97646484 31.29773438 6.97646484 32 6 C33.32 6.66 34.64 7.32 36 8 C32.41934578 13.66936919 28.2302261 18.80462523 24 24 C20.90240427 23.40577253 19.03444666 22.48963237 16.609375 20.48828125 C15.98554932 19.98006836 15.36172363 19.47185547 14.71899414 18.94824219 C13.74434204 18.1385498 13.74434204 18.1385498 12.75 17.3125 C11.41087812 16.21916734 10.07104037 15.12671085 8.73046875 14.03515625 C8.08899902 13.51066895 7.4475293 12.98618164 6.78662109 12.44580078 C3.59653504 9.86426353 0.30652966 7.42928709 -3 5 C-1.125 1.125 -1.125 1.125 0 0 Z " fill="#EAF5F0" transform="translate(525,509)"/>
<path d="M0 0 C7.125 4.75 7.125 4.75 8.625 7.75 C8.69592842 9.9572923 8.70915025 12.16667452 8.6875 14.375 C8.67847656 15.56351562 8.66945313 16.75203125 8.66015625 17.9765625 C8.64855469 18.89179688 8.63695312 19.80703125 8.625 20.75 C7.305 20.42 5.985 20.09 4.625 19.75 C4.295 16.12 3.965 12.49 3.625 8.75 C1.975 8.09 0.325 7.43 -1.375 6.75 C-2.15875 6.37875 -2.9425 6.0075 -3.75 5.625 C-7.18209922 4.48096693 -9.77647224 4.36444345 -13.375 4.75 C-17.26261964 6.90978869 -18.20639538 8.26827251 -19.6875 12.5 C-19.914375 13.5725 -20.14125 14.645 -20.375 15.75 C-21.695 15.75 -23.015 15.75 -24.375 15.75 C-24.93164025 10.29492553 -24.13960661 7.40633641 -20.77734375 3.26171875 C-15.24013009 -2.70736673 -7.36081 -2.72622593 0 0 Z " fill="#EDF6F3" transform="translate(595.375,398.25)"/>
<path d="M0 0 C5.46882606 0.400158 8.98892461 2.42311318 13 6 C16.14088261 10.71132392 15.66915913 15.48967937 15 21 C13.42623625 25.46766817 11.25132754 28.82017689 7.8125 32.0625 C2.35677617 33.88107461 -3.50092149 33.57479384 -9 32 C-8.67 30.68 -8.34 29.36 -8 28 C-7.25234375 28.05800781 -6.5046875 28.11601563 -5.734375 28.17578125 C0.41540414 28.65717806 0.41540414 28.65717806 5.5625 25.8125 C6.036875 24.884375 6.51125 23.95625 7 23 C7.4125 22.236875 7.825 21.47375 8.25 20.6875 C9.32156823 16.84771386 9.3811823 14.00241416 9 10 C6.57631657 6.58888999 3.92117276 5.30705759 0 4 C0 2.68 0 1.36 0 0 Z " fill="#EEF6F3" transform="translate(287,576)"/>
<path d="M0 0 C4.11963008 2.77835517 6.79689524 6.23949874 8.6875 10.8125 C9.31587093 16.12442637 9.60177906 21.08943562 7.0625 25.875 C3.4711882 28.80475437 0.39456026 30.8125 -4.3125 30.8125 C-4.3125 29.4925 -4.3125 28.1725 -4.3125 26.8125 C-1.9375 25.1875 -1.9375 25.1875 0.6875 23.8125 C3.05910148 21.44089852 3.00733352 20.80628878 3.0625 17.5625 C2.93656216 11.96726163 0.72045411 8.84545411 -3.1875 4.9375 C-7.40882813 2.70267923 -11.83570341 3.7591361 -16.3125 4.8125 C-16.6425 3.4925 -16.9725 2.1725 -17.3125 0.8125 C-11.67752917 -2.09587204 -5.88442364 -2.10951036 0 0 Z " fill="#EDF6F3" transform="translate(464.3125,567.1875)"/>
<path d="M0 0 C6.24037253 -0.4992298 10.01009196 -0.24142184 15 4 C16.16297973 6.32595946 16.16600691 7.78723231 16.1875 10.375 C16.20167969 11.14585937 16.21585937 11.91671875 16.23046875 12.7109375 C16 15 16 15 14 19 C16.97 21.97 19.94 24.94 23 28 C21 30 21 30 18.8125 30.0625 C15.16243329 28.68358591 13.30553186 26.47828995 10.74609375 23.59375 C8.8221631 21.83767907 7.54164457 21.40043416 5 21 C5 19.68 5 18.36 5 17 C5.825 16.54625 6.65 16.0925 7.5 15.625 C8.325 15.08875 9.15 14.5525 10 14 C10.4784569 10.25208764 9.92235602 7.68942408 9 4 C6.03 4 3.06 4 0 4 C0 2.68 0 1.36 0 0 Z " fill="#E8F4EF" transform="translate(415,579)"/>
<path d="M0 0 C6.93 0 13.86 0 21 0 C21 3.3 21 6.6 21 10 C14.07 10 7.14 10 0 10 C0 6.7 0 3.4 0 0 Z " fill="#F9FCFB" transform="translate(382,277)"/>
<path d="M0 0 C3.375 1.5 3.375 1.5 6 3 C5.34 4.32 4.68 5.64 4 7 C2.93072266 6.89558594 2.93072266 6.89558594 1.83984375 6.7890625 C-3.30952347 6.49798118 -6.9885338 6.31474884 -11.0625 9.75 C-14.56258601 13.13883633 -15.96150091 15.84502745 -16.125 20.75 C-16.08375 21.8225 -16.0425 22.895 -16 24 C-17.98 24.99 -17.98 24.99 -20 26 C-22.3635962 22.30688093 -22.50338992 19.31477078 -22 15 C-18.07764696 6.32868234 -10.076641 -1.25958012 0 0 Z " fill="#E8F4EF" transform="translate(191,510)"/>
<path d="M0 0 C1.32 0.33 2.64 0.66 4 1 C4.57433809 10.76374745 4.57433809 10.76374745 1 15 C-1.79748841 15.93249614 -3.54320881 16.13476152 -6.4375 16.125 C-7.19933594 16.12757813 -7.96117187 16.13015625 -8.74609375 16.1328125 C-11 16 -11 16 -15 15 C-17.64 17.97 -20.28 20.94 -23 24 C-23.66 23.67 -24.32 23.34 -25 23 C-25.24609375 20.75390625 -25.24609375 20.75390625 -25 18 C-23.28515625 15.90234375 -23.28515625 15.90234375 -21.0625 13.9375 C-18.19985348 11.38787655 -16.54269886 9.86780613 -16 6 C-14.0625 6.3125 -14.0625 6.3125 -12 7 C-11.67 7.99 -11.34 8.98 -11 10 C-9.081875 10.0309375 -9.081875 10.0309375 -7.125 10.0625 C-6.40570313 10.07410156 -5.68640625 10.08570313 -4.9453125 10.09765625 C-2.91814596 10.12649242 -2.91814596 10.12649242 -1 9 C-0.53348793 6.87423218 -0.53348793 6.87423218 -0.375 4.4375 C-0.30023438 3.61121094 -0.22546875 2.78492188 -0.1484375 1.93359375 C-0.09945312 1.29550781 -0.05046875 0.65742188 0 0 Z " fill="#EEF7F3" transform="translate(149,434)"/>
<path d="M0 0 C4.74983085 0.83164567 6.56603964 3.80333793 9.3125 7.5 C9.79307861 8.12986816 10.27365723 8.75973633 10.76879883 9.40869141 C11.73425585 10.67473201 12.69582509 11.9437476 13.65332031 13.21582031 C15.47074015 15.62367096 17.32808393 17.9995011 19.1875 20.375 C20.12537819 21.58303982 21.06305076 22.79123955 22 24 C21.1875 25.9375 21.1875 25.9375 20 28 C19.01 28.33 18.02 28.66 17 29 C16.38253906 28.11699219 15.76507813 27.23398437 15.12890625 26.32421875 C9.70311317 18.61773871 4.08636241 11.20366565 -2 4 C-1.34 2.68 -0.68 1.36 0 0 Z " fill="#E9F4F0" transform="translate(490,542)"/>
<path d="M0 0 C0.52207031 0.17668213 1.04414062 0.35336426 1.58203125 0.53540039 C5.85219762 1.97078578 10.13189319 3.35802499 14.4375 4.68359375 C16.29170722 5.26810054 18.14587355 5.85273704 20 6.4375 C21.42892578 6.86772461 21.42892578 6.86772461 22.88671875 7.30664062 C24.24216797 7.74073242 24.24216797 7.74073242 25.625 8.18359375 C26.85089844 8.56342407 26.85089844 8.56342407 28.1015625 8.95092773 C30 10 30 10 30.8359375 11.98852539 C31 14 31 14 30 16 C24.06576632 15.41695954 18.98399175 13.70179886 13.4375 11.5625 C11.79066276 10.9380152 10.14353374 10.31429923 8.49609375 9.69140625 C7.34149658 9.25272217 7.34149658 9.25272217 6.16357422 8.80517578 C3.46443099 7.80068759 0.74077422 6.88397742 -2 6 C-1.34 4.02 -0.68 2.04 0 0 Z " fill="#E9F4F0" transform="translate(560,450)"/>
<path d="M0 0 C1.32 0.33 2.64 0.66 4 1 C4 5.78326391 3.15942148 6.47209129 0.125 10 C-0.68582031 10.95519531 -1.49664062 11.91039062 -2.33203125 12.89453125 C-2.76467285 13.39678223 -3.19731445 13.8990332 -3.64306641 14.41650391 C-5.5226913 16.60996325 -7.36523774 18.83341771 -9.20947266 21.05664062 C-11.13374238 23.37604187 -13.06710264 25.68778667 -15 28 C-17.475 27.01 -17.475 27.01 -20 26 C-18.45555924 22.51490069 -16.37524647 19.85677663 -13.9375 16.9375 C-13.1434375 15.98101563 -12.349375 15.02453125 -11.53125 14.0390625 C-10.6959375 13.03617188 -9.860625 12.03328125 -9 11 C-7.30812444 8.94104333 -5.62299381 6.87669654 -3.9375 4.8125 C-2.625 3.20833333 -1.3125 1.60416667 0 0 Z " fill="#E9F5F0" transform="translate(211,531)"/>
<path d="M0 0 C0.33 1.65 0.66 3.3 1 5 C-1.71427076 7.18495719 -4.17479114 8.60755356 -7.4375 9.8125 C-12.8343174 11.87646142 -18.0106867 14.32219002 -23.21484375 16.828125 C-26 18 -26 18 -29 18 C-29.66 16.35 -30.32 14.7 -31 13 C-26.90871045 11.14384413 -22.81526278 9.29256098 -18.71972656 7.44580078 C-17.3262159 6.8166096 -15.93330836 6.1860809 -14.54101562 5.55419922 C-12.5419291 4.64720626 -10.54073687 3.74501462 -8.5390625 2.84375 C-7.60303696 2.4172113 -7.60303696 2.4172113 -6.64810181 1.98205566 C-2.22774341 0 -2.22774341 0 0 0 Z " fill="#E8F4EF" transform="translate(162,459)"/>
<path d="M0 0 C1.65 0.33 3.3 0.66 5 1 C4.37229117 5.76320229 2.4218536 9.53707961 0.25 13.75 C-0.10835937 14.45576172 -0.46671875 15.16152344 -0.8359375 15.88867188 C-3.44086075 20.99076076 -6.13376272 26.03920471 -9 31 C-10.65 30.67 -12.3 30.34 -14 30 C-13.41406937 24.96496903 -11.08800833 21.05450476 -8.6875 16.6875 C-7.89881878 15.23357203 -7.11105411 13.77914649 -6.32421875 12.32421875 C-5.93927246 11.61442871 -5.55432617 10.90463867 -5.15771484 10.17333984 C-3.36919419 6.81580908 -1.6842445 3.41088416 0 0 Z " fill="#EBF5F1" transform="translate(251,560)"/>
<path d="M0 0 C0.68835938 0.2475 1.37671875 0.495 2.0859375 0.75 C2.4159375 1.74 2.7459375 2.73 3.0859375 3.75 C2.30992187 4.22308594 1.53390625 4.69617188 0.734375 5.18359375 C-0.88597656 6.17552734 -0.88597656 6.17552734 -2.5390625 7.1875 C-3.11503174 7.54005859 -3.69100098 7.89261719 -4.28442383 8.25585938 C-7.49013338 10.22754124 -10.67141186 12.22980052 -13.82421875 14.28515625 C-14.45569824 14.69644775 -15.08717773 15.10773926 -15.73779297 15.53149414 C-16.96727887 16.33531444 -18.19423567 17.14301829 -19.41845703 17.95483398 C-23.69530131 20.75 -23.69530131 20.75 -25.9140625 20.75 C-26.5740625 19.1 -27.2340625 17.45 -27.9140625 15.75 C-27.28242188 15.34910156 -26.65078125 14.94820313 -26 14.53515625 C-25.10539063 13.96667969 -24.21078125 13.39820313 -23.2890625 12.8125 C-22.29390625 12.18472656 -21.29875 11.55695313 -20.2734375 10.91015625 C-17.90176832 9.38511781 -15.56671453 7.83916472 -13.2421875 6.24609375 C-12.62682129 5.83157959 -12.01145508 5.41706543 -11.37744141 4.98999023 C-10.16849862 4.17455592 -8.96730549 3.34749129 -7.77490234 2.50805664 C-4.96502747 0.63170711 -3.42425942 -0.29377025 0 0 Z " fill="#ECF6F2" transform="translate(168.9140625,476.25)"/>
<path d="M0 0 C0 1.98 0 3.96 0 6 C-10.2672711 9.29200282 -20.5565605 12.31411542 -31 15 C-31.66 13.35 -32.32 11.7 -33 10 C-26.53579329 6.99339223 -19.82194761 5.03447432 -13 3 C-11.53626953 2.54367187 -11.53626953 2.54367187 -10.04296875 2.078125 C-9.16253906 1.80484375 -8.28210938 1.5315625 -7.375 1.25 C-6.59898437 1.00765625 -5.82296875 0.7653125 -5.0234375 0.515625 C-3 0 -3 0 0 0 Z " fill="#EAF5F1" transform="translate(151,427)"/>
<path d="M0 0 C1.65 0 3.3 0 5 0 C6.20717301 3.62151904 5.69362334 4.41449021 4.3125 7.875 C2.26417699 13.2048924 0.55646321 18.58280557 -1.0703125 24.0546875 C-1.92663628 26.76757879 -2.90563353 29.37545739 -4 32 C-5.65 31.67 -7.3 31.34 -9 31 C-7.56220082 23.9780212 -5.59318032 17.24983833 -3.375 10.4375 C-2.88773437 8.92446289 -2.88773437 8.92446289 -2.390625 7.38085938 C-1.59735302 4.91938308 -0.80041857 2.4591597 0 0 Z " fill="#EAF5F1" transform="translate(280,574)"/>
<path d="M0 0 C1.32 0 2.64 0 4 0 C7.64373587 10.54235041 10.86177871 21.03171669 13 32 C10.03 32.495 10.03 32.495 7 33 C6.51080078 31.09927734 6.51080078 31.09927734 6.01171875 29.16015625 C5.57047424 27.46089549 5.12905883 25.76167911 4.6875 24.0625 C4.36749023 22.81629883 4.36749023 22.81629883 4.04101562 21.54492188 C2.74624441 16.57841139 1.28568705 11.7387644 -0.46875 6.9140625 C-1.17465293 4.37073575 -0.87536063 2.46692541 0 0 Z " fill="#EDF6F3" transform="translate(409,581)"/>
<path d="M0 0 C11.22871603 0.9515861 22.09888705 2.01611872 33 5 C32.67 6.65 32.34 8.3 32 10 C25.1307549 9.37284014 18.3198412 8.53114366 11.5 7.5 C10.60796875 7.36980469 9.7159375 7.23960937 8.796875 7.10546875 C7.94609375 6.97785156 7.0953125 6.85023438 6.21875 6.71875 C5.45498047 6.60466797 4.69121094 6.49058594 3.90429688 6.37304688 C2 6 2 6 0 5 C0 3.35 0 1.7 0 0 Z " fill="#EFF7F4" transform="translate(570,416)"/>
<path d="M0 0 C3 1 3 1 4.22680664 2.9777832 C4.8125647 4.25141724 4.8125647 4.25141724 5.41015625 5.55078125 C5.84263672 6.47697266 6.27511719 7.40316406 6.72070312 8.35742188 C7.16349609 9.33259766 7.60628906 10.30777344 8.0625 11.3125 C8.94916283 13.22528634 9.83587957 15.13804769 10.72265625 17.05078125 C11.11203369 17.90325439 11.50141113 18.75572754 11.90258789 19.6340332 C12.60950284 21.15810723 13.36134034 22.66252036 14.16577148 24.13745117 C15.31176944 26.69607522 14.73332282 28.36003786 14 31 C13.01 31.33 12.02 31.66 11 32 C6.38 22.43 1.76 12.86 -3 3 C-2.01 2.01 -1.02 1.02 0 0 Z " fill="#EEF7F4" transform="translate(443,570)"/>
<path d="M0 0 C1.32 0.33 2.64 0.66 4 1 C2.59387909 6.40433338 0.66490715 11.35036886 -1.625 16.4375 C-1.94984375 17.16904297 -2.2746875 17.90058594 -2.609375 18.65429688 C-3.4021445 20.43802825 -4.20049243 22.21927859 -5 24 C-4.06929688 24.13277344 -3.13859375 24.26554687 -2.1796875 24.40234375 C1.15647163 25.02941052 3.21111615 26.1134021 6 28 C5.67 28.99 5.34 29.98 5 31 C1.14974121 30.39644592 -1.86101159 29.23227397 -5.3125 27.4375 C-6.19550781 26.98246094 -7.07851563 26.52742188 -7.98828125 26.05859375 C-8.65214844 25.70925781 -9.31601562 25.35992187 -10 25 C-8.89254209 18.70497611 -7.04388676 13.59505804 -4 8 C-3.24486744 6.50257727 -2.49471369 5.00263153 -1.75 3.5 C-0.88375 1.7675 -0.88375 1.7675 0 0 Z " fill="#E2F1EC" transform="translate(426,182)"/>
<path d="M0 0 C3.3 0 6.6 0 10 0 C10 1.65 10 3.3 10 5 C10.33 5.33 10.66 5.66 11 6 C11.55272553 9.7506375 11.7555086 13.42059624 10.09375 16.89453125 C8.08196995 19.54466459 6.23072195 20.91473319 3.125 22.0625 C-1.72592593 21.96548148 -5.43589663 20.51364842 -8.9375 17.125 C-10.20740557 14.58518887 -10.23366867 12.80402402 -10 10 C-9.01 10 -8.02 10 -7 10 C-6.608125 10.825 -6.21625 11.65 -5.8125 12.5 C-4.31362278 15.15515351 -4.31362278 15.15515351 -2.1015625 15.40234375 C0.364183 15.48806067 0.364183 15.48806067 4 15 C6.5654594 12.4345406 6.54046087 10.52313332 7 7 C5.35 6.67 3.7 6.34 2 6 C2 5.67 2 5.34 2 5 C3.98 4.67 5.96 4.34 8 4 C8.33 3.01 8.66 2.02 9 1 C6.03 1 3.06 1 0 1 C0 0.67 0 0.34 0 0 Z " fill="#DDEEE8" transform="translate(135,397)"/>
<path d="M0 0 C4.25709792 2.40923674 7.124863 5.4771001 9 10 C9.86284183 16.57916897 9.86284183 16.57916897 7.76171875 20.0390625 C5.27934709 23.03269185 3.74958615 24.75013795 0 26 C0 24.68 0 23.36 0 22 C0.99 21.67 1.98 21.34 3 21 C3.87800851 17.16631927 4.61948481 13.64087926 3.19921875 9.87890625 C0.97850227 6.39954264 -0.41784279 5.1799395 -4.4375 3.9375 C-8.06393546 4.00112167 -10.66459672 4.61702791 -14 6 C-14.33 5.01 -14.66 4.02 -15 3 C-10.42630171 -0.65895864 -5.61425439 -1.09311807 0 0 Z " fill="#EFF7F4" transform="translate(266,200)"/>
<path d="M0 0 C0.33 0.99 0.66 1.98 1 3 C3.97 3 6.94 3 10 3 C11.99987258 6.99974516 12.55311989 8.66722755 12 13 C10.125 14.875 10.125 14.875 8 16 C7.34 16 6.68 16 6 16 C6 17.32 6 18.64 6 20 C7.32 20.33 8.64 20.66 10 21 C8.68 21 7.36 21 6 21 C5.67 22.32 5.34 23.64 5 25 C4.60167969 23.46279297 4.60167969 23.46279297 4.1953125 21.89453125 C3.83870972 20.53381011 3.48192949 19.17313547 3.125 17.8125 C2.95097656 17.13896484 2.77695312 16.46542969 2.59765625 15.77148438 C1.82254121 12.82891803 1.00171105 10.00416201 -0.15625 7.1875 C-1.21708656 4.43718298 -0.7970077 2.78952693 0 0 Z " fill="#23946B" transform="translate(414,580)"/>
<path d="M0 0 C0.33 1.32 0.66 2.64 1 4 C0.01 4 -0.98 4 -2 4 C-1.94779297 4.93972656 -1.94779297 4.93972656 -1.89453125 5.8984375 C-1.86746094 6.71570313 -1.84039062 7.53296875 -1.8125 8.375 C-1.76029297 9.59316406 -1.76029297 9.59316406 -1.70703125 10.8359375 C-1.80371094 11.55007813 -1.90039062 12.26421875 -2 13 C-5.08888522 15.05925681 -5.70935927 15.2390374 -9.1875 15.125 C-11.0746875 15.063125 -11.0746875 15.063125 -13 15 C-13.268125 14.360625 -13.53625 13.72125 -13.8125 13.0625 C-14.88667752 10.66868314 -14.88667752 10.66868314 -18 10 C-18.33 11.32 -18.66 12.64 -19 14 C-19 12.02 -19 10.04 -19 8 C-12.63876684 5.48590969 -6.83981276 3.51621228 0 3 C0 2.01 0 1.02 0 0 Z " fill="#29976F" transform="translate(151,430)"/>
<path d="M0 0 C1.32 0.66 2.64 1.32 4 2 C4 6 4 6 2.80664062 7.64746094 C2.26201172 8.17114258 1.71738281 8.69482422 1.15625 9.234375 C0.27646484 10.09482422 0.27646484 10.09482422 -0.62109375 10.97265625 C-1.24113281 11.55917969 -1.86117187 12.14570313 -2.5 12.75 C-3.12003906 13.35199219 -3.74007812 13.95398438 -4.37890625 14.57421875 C-5.91044821 16.05863634 -7.45409774 17.53054345 -9 19 C-10.7074998 17.71937515 -12.37373596 16.38232443 -14 15 C-14 14.34 -14 13.68 -14 13 C-12.5409043 11.77303316 -11.07766512 10.55036027 -9.5859375 9.36328125 C-7.40634847 7.48969364 -5.77688383 5.25071952 -4 3 C-1.75 1.1875 -1.75 1.1875 0 0 Z " fill="#F2F8F6" transform="translate(216,194)"/>
<path d="M0 0 C2.95604681 0.31957263 4.54970523 0.52713676 6.63671875 2.71875 C9.12782793 6.88725362 8.70487308 11.31162399 8 16 C6.13186431 20.44487456 4.0137203 23.32418646 0 26 C-3.1875 26.125 -3.1875 26.125 -6 26 C-5.8125 24.125 -5.8125 24.125 -5 22 C-3.33927151 21.31867549 -1.672233 20.65257873 0 20 C2.11881976 16.83261756 2.27023516 14.12862257 2.25 10.375 C2.25515625 9.41335937 2.2603125 8.45171875 2.265625 7.4609375 C2.24112088 4.82302652 2.24112088 4.82302652 0 3 C0 2.01 0 1.02 0 0 Z " fill="#E4F2ED" transform="translate(404,175)"/>
<path d="M0 0 C-0.58981233 6.25201072 -0.58981233 6.25201072 -2.0625 8.9375 C-5.24190735 10.68104597 -8.46674987 10.55207033 -12 10 C-14 8.6875 -14 8.6875 -15 7 C-15 6.01 -15 5.02 -15 4 C-15.99 4 -16.98 4 -18 4 C-18.33 5.32 -18.66 6.64 -19 8 C-19 6.35 -19 4.7 -19 3 C-19.99 2.67 -20.98 2.34 -22 2 C-14.57359158 0.39118425 -7.59498961 -0.26442904 0 0 Z " fill="#29976E" transform="translate(143,403)"/>
<path d="M0 0 C1.03551045 2.93253346 2.05081838 5.87166938 3.0625 8.8125 C3.35705078 9.64587891 3.65160156 10.47925781 3.95507812 11.33789062 C4.3659668 12.54155273 4.3659668 12.54155273 4.78515625 13.76953125 C5.04176025 14.50792236 5.29836426 15.24631348 5.56274414 16.00708008 C6 18 6 18 5 21 C3.02 21 1.04 21 -1 21 C-2.00486895 18.04329782 -3.00306024 15.08438423 -4 12.125 C-4.28617188 11.28324219 -4.57234375 10.44148438 -4.8671875 9.57421875 C-5.13789062 8.76855469 -5.40859375 7.96289062 -5.6875 7.1328125 C-5.93886719 6.38918457 -6.19023438 5.64555664 -6.44921875 4.87939453 C-7 3 -7 3 -7 1 C-2.25 0 -2.25 0 0 0 Z " fill="#EBF5F1" transform="translate(564,288)"/>
<path d="M0 0 C1.13488889 2.83722223 1.9872323 5.43906393 2.75 8.375 C2.97042969 9.15617187 3.19085937 9.93734375 3.41796875 10.7421875 C4.30504527 13.95990604 5 16.6423733 5 20 C3.02 20.33 1.04 20.66 -1 21 C-4.05308251 14.31229544 -7 7.42461024 -7 0 C-3.89041185 -1.03652938 -2.94147243 -1.22649299 0 0 Z " fill="#EBF5F1" transform="translate(609,275)"/>
<path d="M0 0 C0 1.32 0 2.64 0 4 C-0.825 4.70125 -1.65 5.4025 -2.5 6.125 C-5.68920787 9.79258905 -5.59911182 11.91555458 -5.375 16.62890625 C-4.90435272 19.60476978 -3.76042273 21.57941875 -2 24 C-2 24.99 -2 25.98 -2 27 C-5.12981912 26.66466224 -6.00061159 25.99933599 -8.1875 23.625 C-11.3803428 19.00088285 -11.80990871 14.46688377 -11 9 C-8.43767479 3.29213376 -6.56123972 0 0 0 Z " fill="#E1F0EA" transform="translate(370,169)"/>
<path d="M0 0 C1.32 0.99 2.64 1.98 4 3 C3.43504582 6.73035921 1.95173993 8.37287845 -0.75 10.9375 C-1.46671875 11.62714844 -2.1834375 12.31679687 -2.921875 13.02734375 C-3.60765625 13.67832031 -4.2934375 14.32929688 -5 15 C-6.00357778 15.99640937 -7.00430102 16.9957174 -8 18 C-8.66 18.66 -9.32 19.32 -10 20 C-11.32 18.68 -12.64 17.36 -14 16 C-12.34136495 11.67495164 -9.128959 8.90581175 -5.875 5.75 C-5.31167969 5.19570312 -4.74835938 4.64140625 -4.16796875 4.0703125 C-2.78313972 2.70895515 -1.39216796 1.35385141 0 0 Z " fill="#EEF7F3" transform="translate(183,161)"/>
<path d="M0 0 C0.33 2.97 0.66 5.94 1 9 C3.0728125 9.0928125 3.0728125 9.0928125 5.1875 9.1875 C8.75734032 9.59918775 10.03843761 10.02613757 13.125 12.125 C15 15 15 15 15.0625 18.6875 C14 22 14 22 11.9375 23.4375 C11.298125 23.623125 10.65875 23.80875 10 24 C10 21.33333333 10 18.66666667 10 16 C7.23956958 14.78216305 4.94931117 13.9937932 1.9375 13.625 C-1.64885907 12.86194488 -2.89874851 11.9902425 -5 9 C-5.47594174 5.66840785 -5.64385081 3.87797838 -3.625 1.125 C-2 0 -2 0 0 0 Z " fill="#D5EBE3" transform="translate(297,180)"/>
<path d="M0 0 C-0.61277612 2.96175123 -1.25372522 4.38058783 -3 7 C-3.67386926 12.72788872 -2.43343741 17.39029236 1 22 C3.05116287 23.24024387 3.05116287 23.24024387 5 24 C5 24.99 5 25.98 5 27 C-1.34866553 26.63373083 -1.34866553 26.63373083 -4.3125 23.75 C-7.87247744 17.94855528 -9.08544013 12.80570964 -8 6 C-6.12168455 2.33728488 -4.34446381 0 0 0 Z " fill="#ECF6F2" transform="translate(325,172)"/>
<path d="M0 0 C0.99 0 1.98 0 3 0 C4.65189537 3.41376807 6.29544896 6.8314872 7.9375 10.25 C8.40607422 11.21808594 8.87464844 12.18617188 9.35742188 13.18359375 C9.80537109 14.11816406 10.25332031 15.05273438 10.71484375 16.015625 C11.12855225 16.87446289 11.54226074 17.73330078 11.96850586 18.61816406 C12.89146077 20.74937071 13.52057857 22.73364413 14 25 C12.35 25.33 10.7 25.66 9 26 C8.58234375 25.00355469 8.1646875 24.00710937 7.734375 22.98046875 C6.6050167 20.34109198 5.41045115 17.75041317 4.140625 15.17578125 C3.82996094 14.53962891 3.51929688 13.90347656 3.19921875 13.24804688 C2.5587322 11.94203417 1.91008289 10.63999733 1.25390625 9.34179688 C-1.06544278 4.54162514 -1.06544278 4.54162514 -0.703125 1.54296875 C-0.35507812 0.77919922 -0.35507812 0.77919922 0 0 Z " fill="#E5F2EE" transform="translate(277,187)"/>
<path d="M0 0 C4.62 0 9.24 0 14 0 C14 2.97 14 5.94 14 9 C9.38 9 4.76 9 0 9 C0 6.03 0 3.06 0 0 Z " fill="#F5FAF8" transform="translate(352,339)"/>
<path d="M0 0 C-1 3 -1 3 -3.375 4.3125 C-6.74947502 6.48180537 -7.6307509 8.25258141 -9 12 C-9.37606522 16.43756964 -9.49455917 18.25816125 -7 22 C-7 23.32 -7 24.64 -7 26 C-9.99294243 25.13362193 -11.6095146 24.61361992 -13.3125 21.9375 C-14.56778028 16.57402972 -14.70776181 11.87556879 -12.75 6.6875 C-8.98514085 0.90575202 -7.10597203 -0.54661323 0 0 Z " fill="#F0F8F5" transform="translate(403,174)"/>
<path d="M0 0 C1.32 0.33 2.64 0.66 4 1 C3.13736938 6.48305476 0.67502029 10.16630135 -2.3125 14.75 C-2.79912109 15.52988281 -3.28574219 16.30976563 -3.78710938 17.11328125 C-4.26599609 17.85449219 -4.74488281 18.59570312 -5.23828125 19.359375 C-5.67180908 20.03452148 -6.10533691 20.70966797 -6.55200195 21.40527344 C-8.28387408 23.3126396 -9.48992176 23.62575186 -12 24 C-13 21 -13 21 -12.24316406 19.27001953 C-11.83807617 18.64724121 -11.43298828 18.02446289 -11.015625 17.3828125 C-10.57476562 16.69316406 -10.13390625 16.00351563 -9.6796875 15.29296875 C-9.20789063 14.57753906 -8.73609375 13.86210937 -8.25 13.125 C-7.33830042 11.71109303 -6.42683662 10.297034 -5.515625 8.8828125 C-5.08185547 8.21668945 -4.64808594 7.55056641 -4.20117188 6.86425781 C-2.74704161 4.60740035 -1.36115467 2.31396294 0 0 Z " fill="#EAF5F0" transform="translate(450,194)"/>
<path d="M0 0 C3.63 0 7.26 0 11 0 C11.09765625 7.71484375 11.09765625 7.71484375 11 10 C10 11 10 11 7.71484375 11.09765625 C5.14322917 11.06510417 2.57161458 11.03255208 0 11 C0 7.37 0 3.74 0 0 Z " fill="#D9EDE5" transform="translate(341,230)"/>
<path d="M0 0 C8.27866937 3.22665287 13.12962529 14.46393385 17 22 C15.02 22.99 15.02 22.99 13 24 C11.33909631 21.62728044 9.67962332 19.25374196 8.02734375 16.875 C6.69181399 14.98106956 5.33019399 13.10523068 3.94140625 11.25 C3.30074219 10.38375 2.66007813 9.5175 2 8.625 C1.401875 7.83351562 0.80375 7.04203125 0.1875 6.2265625 C-1 4 -1 4 -0.6875 1.7109375 C-0.460625 1.14632812 -0.23375 0.58171875 0 0 Z " fill="#EBF5F1" transform="translate(248,205)"/>
<path d="M0 0 C0.66 0 1.32 0 2 0 C2.433125 1.03125 2.86625 2.0625 3.3125 3.125 C4.35185226 5.58662377 5.45736944 7.83306577 6.75 10.1875 C8.12387212 13.27871227 7.97208211 13.93268685 7 17 C5.52168779 17.19412181 4.04230684 17.38012131 2.5625 17.5625 C1.73878906 17.66691406 0.91507812 17.77132812 0.06640625 17.87890625 C-0.61550781 17.91886719 -1.29742187 17.95882812 -2 18 C-3 17 -3 17 -3.25 14.625 C-2.89933286 9.54032648 -1.45518849 4.86795197 0 0 Z " fill="#2D9971" transform="translate(383,595)"/>
<path d="M0 0 C6.14154225 0.58490879 12.00679849 1.54066252 18 3 C17.67 4.32 17.34 5.64 17 7 C16.34 7 15.68 7 15 7 C14.731875 7.804375 14.46375 8.60875 14.1875 9.4375 C13.795625 10.283125 13.40375 11.12875 13 12 C12.01 12.33 11.02 12.66 10 13 C8.32722165 11.21371169 6.66175557 9.4214925 5 7.625 C4.28457031 6.86316406 4.28457031 6.86316406 3.5546875 6.0859375 C0 2.2265625 0 2.2265625 0 0 Z " fill="#349C76" transform="translate(555,482)"/>
<path d="M0 0 C0.83887056 2.43572059 1.67126529 4.87333217 2.5 7.3125 C2.73847656 8.00279297 2.97695313 8.69308594 3.22265625 9.40429688 C4.23208263 12.38931489 5 14.82658914 5 18 C3.02 18.33 1.04 18.66 -1 19 C-1.83679277 16.37605694 -2.66956942 13.75095616 -3.5 11.125 C-3.73847656 10.37863281 -3.97695313 9.63226563 -4.22265625 8.86328125 C-6 3.2265625 -6 3.2265625 -6 1 C-3 0 -3 0 0 0 Z " fill="#EEF7F4" transform="translate(586,281)"/>
<path d="M0 0 C1.32 0.66 2.64 1.32 4 2 C4 5 4 5 1.375 7.91796875 C0.25750594 9.01550756 -0.86785643 10.10507895 -2 11.1875 C-2.57234375 11.74630859 -3.1446875 12.30511719 -3.734375 12.88085938 C-5.14962788 14.26073093 -6.57397155 15.63126734 -8 17 C-9.32 16.01 -10.64 15.02 -12 14 C-10.41332422 10.09714233 -7.86649519 7.66479018 -4.875 4.75 C-3.96492187 3.85796875 -3.05484375 2.9659375 -2.1171875 2.046875 C-1.41851562 1.37140625 -0.71984375 0.6959375 0 0 Z " fill="#F1F8F5" transform="translate(198,179)"/>
<path d="M0 0 C3.3 0 6.6 0 10 0 C10 3.3 10 6.6 10 10 C6.7 10 3.4 10 0 10 C0 6.7 0 3.4 0 0 Z " fill="#F9FCFA" transform="translate(325,281)"/>
<path d="M0 0 C3.3 0 6.6 0 10 0 C10 3.3 10 6.6 10 10 C6.7 10 3.4 10 0 10 C0 6.7 0 3.4 0 0 Z " fill="#EDF6F2" transform="translate(359,260)"/>
<path d="M0 0 C7.91470588 -0.60882353 7.91470588 -0.60882353 11.5625 1.4375 C13.67393745 5.20136676 13.49786109 8.77226154 13 13 C12.67 13.66 12.34 14.32 12 15 C11.01 14.67 10.02 14.34 9 14 C8.7525 12.88625 8.505 11.7725 8.25 10.625 C7.42045571 7.03761176 7.42045571 7.03761176 5.3203125 5.87109375 C3.16536085 4.94158611 3.16536085 4.94158611 0 4 C0 2.68 0 1.36 0 0 Z " fill="#E5F3EE" transform="translate(521,535)"/>
<path d="M0 0 C1.921875 0.30859375 1.921875 0.30859375 4 1 C5.25 4.0625 5.25 4.0625 6 7 C5.38125 7.2475 4.7625 7.495 4.125 7.75 C1.64931313 9.20628639 1.04874998 10.37812506 0 13 C-2.31 12.67 -4.62 12.34 -7 12 C-6.67566492 6.64847115 -3.50295176 3.71719957 0 0 Z " fill="#EBF5F1" transform="translate(116,264)"/>
<path d="M0 0 C0.99 0.33 1.98 0.66 3 1 C3.268125 2.134375 3.53625 3.26875 3.8125 4.4375 C4.4003125 6.2009375 4.4003125 6.2009375 5 8 C7.9502491 9.31685277 7.9502491 9.31685277 11 10 C11.99 11.485 11.99 11.485 13 13 C9.2861175 14.23796083 5.85386395 14.67462005 2 14 C-1.36668288 11.22248662 -1.93335016 9.6553901 -2.375 5.3125 C-2 2 -2 2 0 0 Z " fill="#E6F3EE" transform="translate(507,528)"/>
<path d="M0 0 C3.63 0 7.26 0 11 0 C11 2.64 11 5.28 11 8 C7.37 8 3.74 8 0 8 C0 5.36 0 2.72 0 0 Z " fill="#F7FBFA" transform="translate(368,400)"/>
<path d="M0 0 C3.63 0 7.26 0 11 0 C11 2.64 11 5.28 11 8 C7.37 8 3.74 8 0 8 C0 5.36 0 2.72 0 0 Z " fill="#F7FBF9" transform="translate(368,386)"/>
<path d="M0 0 C2.97 0 5.94 0 9 0 C9.08086147 1.79093191 9.13912702 3.58289628 9.1875 5.375 C9.22230469 6.37273437 9.25710938 7.37046875 9.29296875 8.3984375 C9.19628906 9.25695312 9.09960938 10.11546875 9 11 C5.3558226 13.4294516 3.28758728 13.16179575 -1 13 C-1 12.01 -1 11.02 -1 10 C0.65 10 2.3 10 4 10 C4 7.36 4 4.72 4 2 C2.68 2 1.36 2 0 2 C0 1.34 0 0.68 0 0 Z " fill="#E1F0EB" transform="translate(371,183)"/>
<path d="M0 0 C3.83338123 0.12777937 6.19976996 2.5886908 9 5 C8.25 9.75 8.25 9.75 6 12 C3.03 9.03 0.06 6.06 -3 3 C-2.01 2.01 -1.02 1.02 0 0 Z " fill="#E7F3EF" transform="translate(513,194)"/>
<path d="M0 0 C0.66 1.65 1.32 3.3 2 5 C0.56445975 5.50559908 -0.8735202 6.0042749 -2.3125 6.5 C-3.51326172 6.91765625 -3.51326172 6.91765625 -4.73828125 7.34375 C-7 8 -7 8 -10 8 C-10 6.02 -10 4.04 -10 2 C-6.49223216 0.39644899 -3.85645121 -0.22036864 0 0 Z " fill="#E9F4F0" transform="translate(303,138)"/>
<path d="M0 0 C3.3 0.33 6.6 0.66 10 1 C10 2.98 10 4.96 10 7 C8.3745692 6.85904936 6.74965949 6.71207913 5.125 6.5625 C4.22007812 6.48128906 3.31515625 6.40007812 2.3828125 6.31640625 C0 6 0 6 -2 5 C-1.34 3.35 -0.68 1.7 0 0 Z " fill="#E9F4F0" transform="translate(404,136)"/>
<path d="M0 0 C3.375 0.3125 3.375 0.3125 7 1 C9 4 9 4 8.875 7.5625 C8 11 8 11 5.9375 12.4375 C4.9784375 12.7159375 4.9784375 12.7159375 4 13 C4 10.33333333 4 7.66666667 4 5 C2.68 4.34 1.36 3.68 0 3 C0 2.01 0 1.02 0 0 Z " fill="#EAF5F1" transform="translate(303,191)"/>
<path d="M0 0 C1.41791408 0.45445964 2.83428046 0.91374944 4.25 1.375 C5.43335938 1.75785156 5.43335938 1.75785156 6.640625 2.1484375 C8.86627958 2.95173667 10.90931672 3.89711662 13 5 C12.67 6.32 12.34 7.64 12 9 C7.24518354 8.42365861 4.02951788 6.44931479 0 4 C0 2.68 0 1.36 0 0 Z " fill="#DFEFE9" transform="translate(244,589)"/>
<path d="M0 0 C4.23429756 1.31061591 8.07407404 2.94356259 12 5 C11.67 6.32 11.34 7.64 11 9 C6.24518354 8.42365861 3.02951788 6.44931479 -1 4 C-0.67 2.68 -0.34 1.36 0 0 Z " fill="#E1F0EB" transform="translate(258,563)"/>
<path d="M0 0 C3.39192363 0.59283621 5.2107757 1.76743189 7.75 4.0625 C8.67039063 4.88427734 8.67039063 4.88427734 9.609375 5.72265625 C10.29773438 6.35494141 10.29773438 6.35494141 11 7 C10.34 8.32 9.68 9.64 9 11 C5.59260295 8.75421558 2.23521742 6.48862878 -1 4 C-0.67 2.68 -0.34 1.36 0 0 Z " fill="#E2F1EB" transform="translate(217,536)"/>
<path d="M0 0 C3.39192363 0.59283621 5.2107757 1.76743189 7.75 4.0625 C8.67039063 4.88427734 8.67039063 4.88427734 9.609375 5.72265625 C10.29773438 6.35494141 10.29773438 6.35494141 11 7 C10.34 8.32 9.68 9.64 9 11 C7.70391053 10.06862408 6.41328368 9.1296434 5.125 8.1875 C4.40570313 7.66542969 3.68640625 7.14335938 2.9453125 6.60546875 C1 5 1 5 -1 2 C-0.67 1.34 -0.34 0.68 0 0 Z " fill="#E6F3EE" transform="translate(198,558)"/>
<path d="M0 0 C1.64574566 -0.02688151 3.29161413 -0.04634123 4.9375 -0.0625 C5.85402344 -0.07410156 6.77054687 -0.08570313 7.71484375 -0.09765625 C10 0 10 0 11 1 C11.07271741 3.35313555 11.08370868 5.70833668 11.0625 8.0625 C11.05347656 9.35285156 11.04445313 10.64320313 11.03515625 11.97265625 C11.02355469 12.97167969 11.01195312 13.97070312 11 15 C8.36 15 5.72 15 3 15 C3 14.67 3 14.34 3 14 C4.98 14 6.96 14 9 14 C9 10.04 9 6.08 9 2 C6.03 1.67 3.06 1.34 0 1 C0 0.67 0 0.34 0 0 Z " fill="#B1D9CA" transform="translate(501,370)"/>
<path d="M0 0 C2.90614311 1.45307155 3.55698079 3.59291948 5.0625 6.4375 C5.58972656 7.42621094 6.11695313 8.41492188 6.66015625 9.43359375 C7.45168921 10.94973706 8.23511897 12.47023793 9 14 C6.70703125 13.84765625 6.70703125 13.84765625 4 13 C2.19921875 10.49609375 2.19921875 10.49609375 0.6875 7.4375 C0.17574219 6.42558594 -0.33601562 5.41367188 -0.86328125 4.37109375 C-1.23839844 3.58863281 -1.61351562 2.80617187 -2 2 C-1.34 2 -0.68 2 0 2 C0 1.34 0 0.68 0 0 Z " fill="#359D77" transform="translate(219,141)"/>
<path d="M0 0 C4.05281712 1.22527029 7.44360764 2.69880494 11 5 C10.67 5.99 10.34 6.98 10 8 C5.80639551 7.32902328 2.59665648 5.1441606 -1 3 C-0.67 2.01 -0.34 1.02 0 0 Z " fill="#E5F2ED" transform="translate(251,576)"/>
<path d="M0 0 C3.44137432 1.5294997 6.2222133 3.45369552 9 6 C9 6.99 9 7.98 9 9 C4.62140745 8.49477778 2.18348776 5.82172778 -1 3 C-0.67 2.01 -0.34 1.02 0 0 Z " fill="#E8F3EF" transform="translate(208,547)"/>
<path d="M0 0 C-0.3125 1.875 -0.3125 1.875 -1 4 C-4 6 -4 6 -6.125 5.8125 C-6.74375 5.544375 -7.3625 5.27625 -8 5 C-8.33 4.01 -8.66 3.02 -9 2 C-3.375 -1.125 -3.375 -1.125 0 0 Z " fill="#DDEFE8" transform="translate(530,550)"/>
<path d="M0 0 C0.66 0.33 1.32 0.66 2 1 C-3 6 -8 11 -13 16 C-13.33 15.01 -13.66 14.02 -14 13 C-13.0925 12.278125 -12.185 11.55625 -11.25 10.8125 C-8.42063858 8.46798221 -6.27849011 5.88608747 -4 3 C-1.75 1.1875 -1.75 1.1875 0 0 Z " fill="#DCEEE8" transform="translate(216,194)"/>
<path d="M0 0 C0.99 0 1.98 0 3 0 C4.35439668 2.70879335 4.06501451 5.00933268 4 8 C2.35 8 0.7 8 -1 8 C-1.04241723 5.66705225 -1.04092937 3.33297433 -1 1 C-0.67 0.67 -0.34 0.34 0 0 Z " fill="#DCEEE7" transform="translate(197,516)"/>
<path d="M0 0 C2.97 0.495 2.97 0.495 6 1 C6 2.65 6 4.3 6 6 C3.625 6.125 3.625 6.125 1 6 C0.34 5.34 -0.32 4.68 -1 4 C-0.625 1.875 -0.625 1.875 0 0 Z " fill="#DCEEE7" transform="translate(175,535)"/>
<path d="M0 0 C4.14536674 0.4710644 6.9919792 0.9919792 10 4 C10 4.99 10 5.98 10 7 C6.00118212 6.38479725 3.19641774 4.39731331 0 2 C0 1.34 0 0.68 0 0 Z " fill="#E4F2ED" transform="translate(455,198)"/>
<path d="M0 0 C2.31 0 4.62 0 7 0 C7.33 1.32 7.66 2.64 8 4 C5.69 4.33 3.38 4.66 1 5 C0.67 3.35 0.34 1.7 0 0 Z " fill="#BFE0D3" transform="translate(298,202)"/>
<path d="M0 0 C0 1.65 0 3.3 0 5 C-1.65 5.66 -3.3 6.32 -5 7 C-5.66 5.68 -6.32 4.36 -7 3 C-2.25 0 -2.25 0 0 0 Z " fill="#DBEDE7" transform="translate(516,522)"/>
<path d="M0 0 C3.93673644 1.31224548 6.22719294 2.91910327 9 6 C7.3125 6.75 7.3125 6.75 5 7 C2.25 5.25 2.25 5.25 0 3 C0 2.01 0 1.02 0 0 Z " fill="#DBEDE6" transform="translate(449,207)"/>
<path d="M0 0 C0.99 0 1.98 0 3 0 C2.65120368 3.25543229 1.97866739 4.01873107 -0.5625 6.25 C-1.366875 6.8275 -2.17125 7.405 -3 8 C-3.66 7.67 -4.32 7.34 -5 7 C-4.34 5.68 -3.68 4.36 -3 3 C-2.34 3 -1.68 3 -1 3 C-0.67 2.01 -0.34 1.02 0 0 Z " fill="#E4F2ED" transform="translate(270,218)"/>
<path d="M0 0 C3.71599191 -0.20086443 4.77208445 -0.1519437 8 2 C8 2.66 8 3.32 8 4 C4.71303767 4.79953138 3.28976808 5.09658936 0 4 C0 2.68 0 1.36 0 0 Z " fill="#D0E8DF" transform="translate(371,169)"/>
<path d="M0 0 C0.99 0.33 1.98 0.66 3 1 C2.67 2.32 2.34 3.64 2 5 C0.35 5.33 -1.3 5.66 -3 6 C-2.42655063 3.13275314 -2.1385485 2.1385485 0 0 Z " fill="#D8ECE4" transform="translate(334,192)"/>
<path d="M0 0 C0 0.99 0 1.98 0 3 C-2.31 3 -4.62 3 -7 3 C-7 2.01 -7 1.02 -7 0 C-3.86650268 -1.04449911 -3.01031744 -0.93423645 0 0 Z " fill="#E8F4F0" transform="translate(389,609)"/>
<path d="M0 0 C1.32 0 2.64 0 4 0 C3.34 1.98 2.68 3.96 2 6 C1.01 6 0.02 6 -1 6 C-1.042721 4.33388095 -1.04063832 2.66617115 -1 1 C-0.67 0.67 -0.34 0.34 0 0 Z " fill="#E3F1EC" transform="translate(567,487)"/>
<path d="M0 0 C0.103125 0.639375 0.20625 1.27875 0.3125 1.9375 C0.539375 2.618125 0.76625 3.29875 1 4 C1.99 4.33 2.98 4.66 4 5 C3.01 5 2.02 5 1 5 C1 5.99 1 6.98 1 8 C2.65 8 4.3 8 6 8 C6 8.33 6 8.66 6 9 C4.00045254 9.04254356 1.99958364 9.04080783 0 9 C-1 8 -1 8 -1.125 5.0625 C-1 2 -1 2 0 0 Z " fill="#53AB8B" transform="translate(381,604)"/>
<path d="M0 0 C0.33 0.99 0.66 1.98 1 3 C3.97 3 6.94 3 10 3 C9.67 3.66 9.34 4.32 9 5 C6.36 5 3.72 5 1 5 C0.67 5.66 0.34 6.32 0 7 C-0.38133299 5.0085944 -0.71325582 3.00720923 -1 1 C-0.67 0.67 -0.34 0.34 0 0 Z " fill="#6DB89C" transform="translate(414,580)"/>
<path d="M0 0 C-1.28497537 2.56995074 -2.49912373 2.90434463 -5.0625 4.125 C-5.79597656 4.47820312 -6.52945313 4.83140625 -7.28515625 5.1953125 C-7.85105469 5.46085937 -8.41695312 5.72640625 -9 6 C-9.66 5.34 -10.32 4.68 -11 4 C-9.73760288 3.13341385 -8.46472499 2.28207941 -7.1875 1.4375 C-6.47980469 0.96183594 -5.77210938 0.48617188 -5.04296875 -0.00390625 C-3 -1 -3 -1 0 0 Z " fill="#4DA886" transform="translate(170,483)"/>
<path d="M0 0 C-0.33 0.99 -0.66 1.98 -1 3 C-2.98 3.33 -4.96 3.66 -7 4 C-7 3.34 -7 2.68 -7 2 C-7.66 1.67 -8.32 1.34 -9 1 C-2.25 -1.125 -2.25 -1.125 0 0 Z " fill="#41A37F" transform="translate(565,285)"/>
<path d="M0 0 C1.98 0 3.96 0 6 0 C6 1.32 6 2.64 6 4 C4.35 4 2.7 4 1 4 C0.67 2.68 0.34 1.36 0 0 Z " fill="#C9E4DA" transform="translate(298,178)"/>
<path d="M0 0 C2.31 0.33 4.62 0.66 7 1 C6.67 1.99 6.34 2.98 6 4 C4.35 4 2.7 4 1 4 C0.67 2.68 0.34 1.36 0 0 Z " fill="#E2F1EB" transform="translate(326,171)"/>
<path d="M0 0 C0.763125 0.309375 1.52625 0.61875 2.3125 0.9375 C4.18789677 1.67893593 6.08684652 2.36228217 8 3 C8.33 3.99 8.66 4.98 9 6 C6.03 5.01 3.06 4.02 0 3 C0 2.01 0 1.02 0 0 Z " fill="#4AA785" transform="translate(564,449)"/>
<path d="M0 0 C0.99 1.32 1.98 2.64 3 4 C2.67 4.66 2.34 5.32 2 6 C-1.47325181 7.1577506 -4.36067448 7.06866652 -8 7 C-8 6.67 -8 6.34 -8 6 C-5.36 5.34 -2.72 4.68 0 4 C-0.33 3.34 -0.66 2.68 -1 2 C-0.67 1.34 -0.34 0.68 0 0 Z " fill="#5BAF90" transform="translate(519,536)"/>
<path d="M0 0 C0.66 0.33 1.32 0.66 2 1 C-0.64 3.64 -3.28 6.28 -6 9 C-6 6 -6 6 -3.5625 3.375 C-2.716875 2.59125 -1.87125 1.8075 -1 1 C-0.67 0.67 -0.34 0.34 0 0 Z " fill="#DAEDE6" transform="translate(579,398)"/>
<path d="M0 0 C0.66 0.33 1.32 0.66 2 1 C1.25 2.9375 1.25 2.9375 0 5 C-2.125 5.75 -2.125 5.75 -4 6 C-4.33 5.01 -4.66 4.02 -5 3 C-2.625 1.4375 -2.625 1.4375 0 0 Z " fill="#DBEDE6" transform="translate(256,200)"/>
<path d="M0 0 C0 3 0 3 -1.1875 4.625 C-3.41406801 6.31412056 -5.25851328 6.62952882 -8 7 C-8.33 6.34 -8.66 5.68 -9 5 C-8.34 5 -7.68 5 -7 5 C-6.67 4.34 -6.34 3.68 -6 3 C-5.01 3 -4.02 3 -3 3 C-1.31201173 1.56249809 -1.31201173 1.56249809 0 0 Z " fill="#47A683" transform="translate(194,191)"/>
<path d="M0 0 C0.598125 0.165 1.19625 0.33 1.8125 0.5 C4.11344336 1.1114124 4.11344336 1.1114124 7 1 C6.38125 1.598125 5.7625 2.19625 5.125 2.8125 C2.86323046 5.00811144 2.86323046 5.00811144 1 8 C0.67 5.36 0.34 2.72 0 0 Z " fill="#3FA27D" transform="translate(509,527)"/>
<path d="M0 0 C-0.99 0.495 -0.99 0.495 -2 1 C-1.67 1.66 -1.34 2.32 -1 3 C-2.98 3.33 -4.96 3.66 -7 4 C-7.33 3.01 -7.66 2.02 -8 1 C-3.375 -1.125 -3.375 -1.125 0 0 Z " fill="#4AA785" transform="translate(587,278)"/>
<path d="M0 0 C1.32 0.66 2.64 1.32 4 2 C3.67 2.66 3.34 3.32 3 4 C2.34 3.67 1.68 3.34 1 3 C1 3.66 1 4.32 1 5 C-1.31 5.33 -3.62 5.66 -6 6 C-3 4 -3 4 0 4 C0 2.68 0 1.36 0 0 Z " fill="#45A582" transform="translate(305,139)"/>
<path d="M0 0 C0.99 0.66 1.98 1.32 3 2 C2.34 2 1.68 2 1 2 C1 3.32 1 4.64 1 6 C-0.98 6.99 -0.98 6.99 -3 8 C-1.125 1.125 -1.125 1.125 0 0 Z " fill="#42A37F" transform="translate(250,574)"/>
<path d="M0 0 C0.99 0.33 1.98 0.66 3 1 C1.35 2.98 -0.3 4.96 -2 7 C-2.66 6.67 -3.32 6.34 -4 6 C-2.84826645 3.53199953 -1.95216435 1.95216435 0 0 Z " fill="#D6EBE3" transform="translate(165,179)"/>
<path d="M0 0 C0.99 0.33 1.98 0.66 3 1 C2.67 2.32 2.34 3.64 2 5 C3.32 5.33 4.64 5.66 6 6 C3.69 5.67 1.38 5.34 -1 5 C-0.67 3.35 -0.34 1.7 0 0 Z " fill="#63B396" transform="translate(396,196)"/>
</svg>
